<svg width="232" height="286" viewBox="0 0 232 286" fill="none" xmlns="http://www.w3.org/2000/svg">
<path d="M78 0C103.41 0 128.82 0 155 0C155 4.95 155 9.9 155 15C157.226 14.9884 159.452 14.9768 161.746 14.9648C163.894 14.9571 166.042 14.951 168.19 14.9451C169.686 14.94 171.183 14.9332 172.68 14.9246C174.827 14.9125 176.974 14.9068 179.121 14.9023C181.061 14.8945 181.061 14.8945 183.041 14.8865C186 15 186 15 187 16C187.144 20.3353 187.042 24.6616 187 29C191.62 29 196.24 29 201 29C201 33.95 201 38.9 201 44C206.28 44 211.56 44 217 44C217 53.9 217 63.8 217 74C221.95 74 226.9 74 232 74C232 120.2 232 166.4 232 214C227.05 214 222.1 214 217 214C217 222.91 217 231.82 217 241C211.72 241 206.44 241 201 241C201 245.62 201 250.24 201 255C196.38 255 191.76 255 187 255C187 260.28 187 265.56 187 271C176.44 271 165.88 271 155 271C155 275.95 155 280.9 155 286C129.26 286 103.52 286 77 286C77 281.05 77 276.1 77 271C66.44 271 55.88 271 45 271C45 265.72 45 260.44 45 255C40.38 255 35.76 255 31 255C31 250.38 31 245.76 31 241C25.72 241 20.44 241 15 241C15 232.09 15 223.18 15 214C10.05 214 5.1 214 0 214C0 167.8 0 121.6 0 74C4.95 74 9.9 74 15 74C14.9826 70.8772 14.9826 70.8772 14.9648 67.6914C14.9579 65.6825 14.951 63.6737 14.9451 61.6648C14.94 60.265 14.9332 58.8653 14.9246 57.4656C14.9125 55.4575 14.9073 53.4495 14.9023 51.4414C14.8945 49.6268 14.8945 49.6268 14.8865 47.7756C15 45 15 45 16 44C18.5328 43.9268 21.031 43.9077 23.5625 43.9375C26.0169 43.9581 28.4713 43.9787 31 44C31 39.05 31 34.1 31 29C35.62 29 40.24 29 45 29C45 24.38 45 19.76 45 15C55.89 15 66.78 15 78 15C78 10.05 78 5.1 78 0Z" fill="#EDB732"/>
<path d="M78 0C103.41 0 128.82 0 155 0C155 4.95 155 9.9 155 15C157.226 14.9884 159.452 14.9768 161.746 14.9648C163.894 14.9571 166.042 14.951 168.19 14.9451C169.686 14.94 171.183 14.9332 172.68 14.9246C174.827 14.9125 176.974 14.9068 179.121 14.9023C181.061 14.8945 181.061 14.8945 183.041 14.8865C186 15 186 15 187 16C187.144 20.3353 187.042 24.6616 187 29C191.62 29 196.24 29 201 29C201 33.95 201 38.9 201 44C206.28 44 211.56 44 217 44C217 54.23 217 64.46 217 75C221.62 75 226.24 75 231 75C231 120.54 231 166.08 231 213C226.38 213 221.76 213 217 213C215.882 197.663 215.87 182.363 215.902 166.992C215.904 164.327 215.906 161.663 215.907 158.998C215.91 152.751 215.918 146.505 215.928 140.258C215.939 133.133 215.945 126.008 215.95 118.883C215.96 104.255 215.978 89.6277 216 75C210.72 75 205.44 75 200 75C200 65.1 200 55.2 200 45C195.71 45 191.42 45 187 45C186 44 186 44 185.902 40.8398C185.92 38.9082 185.92 38.9082 185.938 36.9375C185.947 35.6471 185.956 34.3568 185.965 33.0273C185.982 31.5288 185.982 31.5288 186 30C185.066 30.0052 184.132 30.0105 183.17 30.0159C179.717 30.0329 176.264 30.0454 172.81 30.0549C171.314 30.06 169.817 30.0668 168.32 30.0754C166.173 30.0875 164.026 30.0932 161.879 30.0977C159.939 30.1055 159.939 30.1055 157.959 30.1135C155 30 155 30 154 29C153.792 27.526 153.633 26.0451 153.5 24.5625C153.209 21.155 153.209 21.155 152 18C148.349 17.3962 144.696 17.2549 141 17C141 21.29 141 25.58 141 30C139.983 30.0553 138.966 30.1107 137.917 30.1677C134.074 30.3772 130.231 30.5881 126.388 30.7996C124.738 30.8901 123.087 30.9803 121.437 31.0701C111.283 31.6225 101.14 32.2347 91 33C89.8624 33.0701 89.8624 33.0701 88.7019 33.1416C85.8823 33.3966 84.2891 33.7494 82.125 35.625C80.6735 38.6894 80.4416 41.6562 80 45C77.1388 46.4306 74.7246 46.0755 71.5312 46.0273C69.5919 46.009 69.5919 46.009 67.6133 45.9902C65.5525 45.9654 63.4918 45.9374 61.4312 45.9041C59.4438 45.8739 57.4563 45.8567 55.4688 45.8398C54.277 45.823 53.0853 45.8062 51.8574 45.7888C48.8675 45.6971 48.8675 45.6971 47 48C46.7217 50.5722 46.7217 50.5722 46.8047 53.5586C46.8144 55.2205 46.8144 55.2205 46.8242 56.916C46.841 58.0781 46.8577 59.2402 46.875 60.4375C46.884 61.5957 46.893 62.7539 46.9023 63.9473C46.9198 66.097 46.9414 68.2466 46.9683 70.3962C46.991 72.2641 47 74.1321 47 76C43.8099 78.1267 41.6195 78.5867 37.9375 79.2422C35.1331 80.3391 34.4705 81.3349 33 84C32.5393 87.1619 32.5729 90.3058 32.5835 93.4966C32.5749 94.46 32.5663 95.4235 32.5575 96.4161C32.5323 99.6134 32.528 102.81 32.5234 106.008C32.5091 108.249 32.4934 110.49 32.4762 112.732C32.4343 118.656 32.4094 124.581 32.3887 130.506C32.3531 139.909 32.2908 149.312 32.2302 158.714C32.2116 161.96 32.1995 165.207 32.1888 168.453C32.1231 183.319 31.6597 198.149 31 213C30.67 213 30.34 213 30 213C30 167.79 30 122.58 30 76C23.07 75.505 23.07 75.505 16 75C16 120.87 16 166.74 16 214C21.28 214 26.56 214 32 214C32 222.58 32 231.16 32 240C36.29 240 40.58 240 45 240C48.5434 243.543 46 249.989 46 255C56.56 255 67.12 255 78 255C78 259.95 78 264.9 78 270C103.41 270 128.82 270 155 270C155 265.05 155 260.1 155 255C155.66 254.01 156.32 253.02 157 252C165.645 250.373 175.575 250.192 184 253C183.988 252.301 183.977 251.603 183.965 250.883C183.956 249.973 183.947 249.063 183.938 248.125C183.92 246.768 183.92 246.768 183.902 245.383C184 243 184 243 185 241C189.95 241 194.9 241 200 241C200 245.62 200 250.24 200 255C195.71 255 191.42 255 187 255C187 260.28 187 265.56 187 271C176.44 271 165.88 271 155 271C155 275.95 155 280.9 155 286C129.26 286 103.52 286 77 286C77 281.05 77 276.1 77 271C66.44 271 55.88 271 45 271C45 265.72 45 260.44 45 255C40.38 255 35.76 255 31 255C31 250.38 31 245.76 31 241C25.72 241 20.44 241 15 241C15 232.09 15 223.18 15 214C10.05 214 5.1 214 0 214C0 167.8 0 121.6 0 74C4.95 74 9.9 74 15 74C14.9826 70.8772 14.9826 70.8772 14.9648 67.6914C14.9579 65.6825 14.951 63.6737 14.9451 61.6648C14.94 60.265 14.9332 58.8653 14.9246 57.4656C14.9125 55.4575 14.9073 53.4495 14.9023 51.4414C14.8945 49.6268 14.8945 49.6268 14.8865 47.7756C15 45 15 45 16 44C18.5328 43.9268 21.031 43.9077 23.5625 43.9375C26.0169 43.9581 28.4713 43.9787 31 44C31 39.05 31 34.1 31 29C35.62 29 40.24 29 45 29C45 24.38 45 19.76 45 15C55.89 15 66.78 15 78 15C78 10.05 78 5.1 78 0Z" fill="#E2BB48"/>
<path d="M93 60C108.51 60 124.02 60 140 60C140.683 69.5612 141.141 78.8872 141.114 88.4409C141.113 89.8223 141.113 91.2036 141.114 92.585C141.114 96.2865 141.108 99.988 141.101 103.69C141.095 107.576 141.095 111.462 141.093 115.349C141.09 122.686 141.082 130.024 141.072 137.362C141.061 145.725 141.055 154.088 141.05 162.451C141.04 179.634 141.022 196.817 141 214C145.95 214 150.9 214 156 214C156 167.8 156 121.6 156 74C156.99 74.33 157.98 74.66 159 75C158.998 75.5829 158.996 76.1658 158.993 76.7664C158.97 83.2803 158.955 89.7942 158.944 96.3081C158.94 98.935 158.935 101.562 158.929 104.189C158.894 120.495 158.995 136.793 159.312 153.097C159.363 155.718 159.411 158.338 159.458 160.958C159.49 162.691 159.521 164.424 159.553 166.157C159.569 167.01 159.584 167.863 159.6 168.741C159.695 173.856 159.81 178.971 159.937 184.085C160.013 187.297 160.072 190.509 160.127 193.722C160.157 195.222 160.193 196.723 160.238 198.223C160.298 200.285 160.333 202.346 160.362 204.408C160.389 205.566 160.416 206.724 160.443 207.917C159.899 211.706 158.714 213.345 156 216C152.984 216.488 152.984 216.488 149.75 216.312C148.672 216.267 147.595 216.222 146.484 216.176C145.665 216.118 144.845 216.06 144 216C143.963 216.748 143.925 217.495 143.887 218.266C143.821 219.25 143.755 220.235 143.688 221.25C143.629 222.225 143.571 223.199 143.512 224.203C142.909 227.499 142.563 228.814 140 231C137.029 231.806 134.062 232.065 131 232.312C129.77 232.441 129.77 232.441 128.516 232.572C122.455 233.152 122.455 233.152 119 232C117.336 231.875 115.668 231.799 114 231.754C112.546 231.705 112.546 231.705 111.062 231.654C109.021 231.593 106.979 231.536 104.938 231.482C103.968 231.448 102.999 231.414 102 231.379C100.67 231.341 100.67 231.341 99.3125 231.303C97 231 97 231 94 229C109.18 229 124.36 229 140 229C140 224.05 140 219.1 140 214C119.87 214 99.74 214 79 214C79 167.8 79 121.6 79 74C85.435 73.505 85.435 73.505 92 73C92.33 68.71 92.66 64.42 93 60Z" fill="#ECB632"/>
<path d="M93 60C108.51 60 124.02 60 140 60C140 64.95 140 69.9 140 75C125.99 75.9906 112.041 76.1162 98 76C98.1623 76.8766 98.3247 77.7533 98.4919 78.6565C98.9502 81.6726 99.1268 84.452 99.1294 87.4963C99.1325 88.5625 99.1356 89.6286 99.1388 90.7271C99.1368 91.8806 99.1349 93.0342 99.1328 94.2227C99.1342 95.4483 99.1355 96.674 99.1369 97.9368C99.1386 101.282 99.1353 104.628 99.1288 107.974C99.125 110.064 99.1229 112.155 99.1213 114.245C99.1022 135.183 98.9238 156.118 98.5938 177.053C98.5626 179.058 98.5328 181.064 98.5032 183.069C98.4464 186.808 98.3828 190.547 98.3164 194.285C98.2997 195.389 98.283 196.492 98.2657 197.629C98.2458 198.649 98.2259 199.668 98.2053 200.719C98.1898 201.599 98.1742 202.48 98.1582 203.387C97.9832 206.278 97.4763 209.142 97 212C110.2 211.67 123.4 211.34 137 211C136.988 206.019 136.977 201.038 136.965 195.906C136.953 189.104 136.944 182.302 136.938 175.5C136.937 174.622 136.936 173.743 136.935 172.838C136.907 140.88 137.249 108.95 138 77C138.66 77.33 139.32 77.66 140 78C140 122.88 140 167.76 140 214C119.87 214 99.74 214 79 214C79 167.8 79 121.6 79 74C85.435 73.505 85.435 73.505 92 73C92.33 68.71 92.66 64.42 93 60Z" fill="#E6C053"/>
<path d="M217 74C221.95 74 226.9 74 232 74C232 120.2 232 166.4 232 214C227.05 214 222.1 214 217 214C217 222.91 217 231.82 217 241C211.72 241 206.44 241 201 241C201 245.62 201 250.24 201 255C200.67 255 200.34 255 200 255C200 250.38 200 245.76 200 241C195.71 241 191.42 241 187 241C187 227.47 187 213.94 187 200C191.29 200 195.58 200 200 200C200 158.75 200 117.5 200 75C205.28 75 210.56 75 216 75C216.33 120.54 216.66 166.08 217 213C221.62 213 226.24 213 231 213C231 167.46 231 121.92 231 75C226.38 75 221.76 75 217 75C217 74.67 217 74.34 217 74Z" fill="#BE722E"/>
<path d="M155 15C159.397 14.9771 163.793 14.9572 168.19 14.9451C169.686 14.94 171.183 14.9332 172.68 14.9246C174.827 14.9125 176.974 14.9068 179.121 14.9023C181.061 14.8945 181.061 14.8945 183.041 14.8865C186 15 186 15 187 16C187.144 20.3353 187.042 24.6616 187 29C191.62 29 196.24 29 201 29C201 33.95 201 38.9 201 44C206.28 44 211.56 44 217 44C217 54.23 217 64.46 217 75C221.62 75 226.24 75 231 75C231 120.54 231 166.08 231 213C226.38 213 221.76 213 217 213C215.882 197.663 215.87 182.363 215.902 166.992C215.904 164.327 215.906 161.663 215.907 158.998C215.91 152.751 215.918 146.505 215.928 140.258C215.939 133.133 215.945 126.008 215.95 118.883C215.96 104.255 215.978 89.6277 216 75C210.72 75 205.44 75 200 75C200 65.1 200 55.2 200 45C195.71 45 191.42 45 187 45C186.67 44.67 186.34 44.34 186 44C186 39.38 186 34.76 186 30C175.77 30 165.54 30 155 30C155 25.05 155 20.1 155 15Z" fill="#1E153B"/>
<path d="M16 214C21.28 214 26.56 214 32 214C32 222.58 32 231.16 32 240C36.29 240 40.58 240 45 240C48.5434 243.543 46 249.989 46 255C56.56 255 67.12 255 78 255C78 259.95 78 264.9 78 270C103.41 270 128.82 270 155 270C155 265.05 155 260.1 155 255C155.66 254.01 156.32 253.02 157 252C165.645 250.373 175.575 250.192 184 253C183.988 252.301 183.977 251.603 183.965 250.883C183.956 249.973 183.947 249.063 183.938 248.125C183.926 247.22 183.914 246.315 183.902 245.383C184 243 184 243 185 241C189.95 241 194.9 241 200 241C200 245.62 200 250.24 200 255C195.71 255 191.42 255 187 255C187 260.28 187 265.56 187 271C176.44 271 165.88 271 155 271C155 275.95 155 280.9 155 286C129.26 286 103.52 286 77 286C77 281.05 77 276.1 77 271C66.44 271 55.88 271 45 271C45 265.72 45 260.44 45 255C40.38 255 35.76 255 31 255C31 250.38 31 245.76 31 241C26.05 241 21.1 241 16 241C16 232.09 16 223.18 16 214Z" fill="#735E5B"/>
<path d="M141 74C145.95 74 150.9 74 156 74C156 120.2 156 166.4 156 214C151.05 214 146.1 214 141 214C141 167.8 141 121.6 141 74Z" fill="#9E5B1D"/>
<path d="M16 75C20.95 75 25.9 75 31 75C30.67 120.87 30.34 166.74 30 214C25.38 214 20.76 214 16 214C16 168.13 16 122.26 16 75Z" fill="#FBEE98"/>
<path d="M1 75C5.62 75 10.24 75 15 75C15 120.87 15 166.74 15 214C10.38 214 5.76 214 1 214C1 168.13 1 122.26 1 75Z" fill="#281D3F"/>
<path d="M80 75C84.29 75 88.58 75 93 75C93 120.54 93 166.08 93 213C88.71 213 84.42 213 80 213C80 167.46 80 121.92 80 75Z" fill="#FCF2A3"/>
<path d="M155 15C159.397 14.9771 163.793 14.9572 168.19 14.9451C169.686 14.94 171.183 14.9332 172.68 14.9246C174.827 14.9125 176.974 14.9068 179.121 14.9023C181.061 14.8945 181.061 14.8945 183.041 14.8865C186 15 186 15 187 16C187.144 20.3353 187.042 24.6616 187 29C191.62 29 196.24 29 201 29C201 33.95 201 38.9 201 44C206.28 44 211.56 44 217 44C217 93.83 217 143.66 217 195C216.67 195 216.34 195 216 195C216 155.4 216 115.8 216 75C210.72 75 205.44 75 200 75C200 65.1 200 55.2 200 45C195.71 45 191.42 45 187 45C186.67 44.67 186.34 44.34 186 44C186 39.38 186 34.76 186 30C175.77 30 165.54 30 155 30C155 25.05 155 20.1 155 15Z" fill="#6B4D43"/>
<path d="M200 75C206.93 75.495 206.93 75.495 214 76C214.025 80.838 214.043 85.6761 214.055 90.5142C214.06 92.1571 214.067 93.8 214.075 95.4429C214.088 97.8161 214.093 100.189 214.098 102.562C214.103 103.287 214.108 104.011 214.113 104.757C214.114 109.587 213.68 114.217 213 119C212.34 119 211.68 119 211 119C211.33 122.3 211.66 125.6 212 129C212.33 129 212.66 129 213 129C213.098 135.152 213.098 135.152 213 137C212.67 137.33 212.34 137.66 212 138C211.802 142.616 211.802 142.616 212.625 147.125C213.169 149.844 212.099 151.498 211 154C210.631 155.659 210.287 157.325 210 159C210.66 159.33 211.32 159.66 212 160C212.875 161.812 212.875 161.812 213 164C211.188 166.25 211.188 166.25 209 168C208.34 168 207.68 168 207 168C207 167.34 207 166.68 207 166C205.515 165.505 205.515 165.505 204 165C204 157.08 204 149.16 204 141C203.205 159.228 203.205 159.228 203.004 177.469C203.007 178.155 203.011 178.841 203.015 179.548C203.035 182.891 203.072 186.232 203.125 189.575C203.137 190.78 203.148 191.985 203.16 193.227C203.177 194.295 203.194 195.363 203.211 196.463C203 199 203 199 201 201C197.742 201.195 197.742 201.195 193.875 201.125C191.953 201.098 191.953 201.098 189.992 201.07C189.005 201.047 188.017 201.024 187 201C187 200.67 187 200.34 187 200C191.29 200 195.58 200 200 200C200 158.75 200 117.5 200 75Z" fill="#C27828"/>
<path d="M78 255C103.41 255 128.82 255 155 255C155 259.95 155 264.9 155 270C129.59 270 104.18 270 78 270C78 265.05 78 260.1 78 255Z" fill="#BA7032"/>
<path d="M78 0C103.41 0 128.82 0 155 0C155 4.95 155 9.9 155 15C129.59 15 104.18 15 78 15C78 10.05 78 5.1 78 0Z" fill="#1E1433"/>
<path d="M78 271C103.41 271 128.82 271 155 271C155 275.62 155 280.24 155 285C129.59 285 104.18 285 78 285C78 280.38 78 275.76 78 271Z" fill="#231A3F"/>
<path d="M78 15C98.46 15 118.92 15 140 15C140 19.62 140 24.24 140 29C119.54 29 99.08 29 78 29C78 24.38 78 19.76 78 15Z" fill="#FAED99"/>
<path d="M1 75C5.62 75 10.24 75 15 75C15 120.54 15 166.08 15 213C14.34 213 13.68 213 13 213C13 168.12 13 123.24 13 77C9.7 77 6.4 77 3 77C3.33 77.66 3.66 78.32 4 79C4.09333 80.7739 4.12191 82.5513 4.12025 84.3277C4.12163 85.4579 4.123 86.5882 4.12442 87.7527C4.12082 88.9985 4.11723 90.2443 4.11353 91.5278C4.11367 92.8351 4.11382 94.1424 4.11397 95.4893C4.11426 99.0799 4.10836 102.671 4.10139 106.261C4.09515 110.012 4.09456 113.762 4.09337 117.512C4.09026 124.617 4.08205 131.721 4.07202 138.825C4.06085 146.912 4.05535 154.999 4.05032 163.086C4.03986 179.724 4.02227 196.362 4 213C3.01 213 2.02 213 1 213C1 167.46 1 121.92 1 75Z" fill="#170F22"/>
<path d="M94 214C109.18 214 124.36 214 140 214C140 218.95 140 223.9 140 229C124.82 229 109.64 229 94 229C94 224.05 94 219.1 94 214Z" fill="#9C5824"/>
<path d="M219 77C222.3 77 225.6 77 229 77C229.046 88.4219 229.082 99.8439 229.104 111.266C229.114 116.569 229.128 121.873 229.151 127.176C229.173 132.292 229.185 137.408 229.19 142.523C229.193 144.477 229.201 146.432 229.211 148.386C229.226 151.118 229.228 153.849 229.227 156.581C229.238 157.799 229.238 157.799 229.249 159.042C229.235 162.895 229.189 164.717 227 168C226.67 166.68 226.34 165.36 226 164C225.25 167.471 225.25 167.471 225 171C223.02 171.495 223.02 171.495 221 172C221.33 140.98 221.66 109.96 222 78C221.34 78 220.68 78 220 78C220.041 79.2012 220.082 80.4025 220.124 81.6401C220.272 86.0865 220.406 90.5331 220.537 94.98C220.596 96.9065 220.658 98.833 220.724 100.759C220.818 103.524 220.898 106.289 220.977 109.055C221.025 110.352 221.025 110.352 221.074 111.675C221.127 113.783 221.073 115.893 221 118C220.34 118.66 219.68 119.32 219 120C219 105.81 219 91.62 219 77Z" fill="#221A41"/>
<path d="M94 60C109.18 60 124.36 60 140 60C140 64.62 140 69.24 140 74C124.82 74 109.64 74 94 74C94 69.38 94 64.76 94 60Z" fill="#FDF398"/>
<path d="M141 74C145.62 74 150.24 74 155 74C155 87.2 155 100.4 155 114C152.052 109.577 152.053 107.419 152.809 102.273C153.129 98.4627 152.567 94.767 152 91C151.67 91.33 151.34 91.66 151 92C150.34 92 149.68 92 149 92C148.951 91.3245 148.902 90.6491 148.852 89.9531C148.777 89.0611 148.702 88.1691 148.625 87.25C148.521 85.9274 148.521 85.9274 148.414 84.5781C147.939 81.6195 147.154 79.154 145 77C143.814 91.7401 142.844 106.382 142.867 121.176C142.867 122.561 142.866 123.947 142.864 125.333C142.863 128.204 142.865 131.075 142.87 133.947C142.875 137.595 142.872 141.243 142.866 144.892C142.862 147.741 142.864 150.59 142.866 153.44C142.867 155.429 142.864 157.417 142.861 159.406C142.878 165.852 143.116 172.174 143.775 178.585C144.089 181.953 144.112 185.254 144.098 188.637C144.093 190.614 144.093 190.614 144.088 192.631C144.08 193.983 144.071 195.335 144.062 196.688C144.057 198.083 144.053 199.478 144.049 200.873C144.037 204.249 144.021 207.624 144 211C146.97 211.33 149.94 211.66 153 212C153.023 203.446 153.041 194.893 153.052 186.339C153.057 182.368 153.064 178.396 153.075 174.425C153.086 170.593 153.092 166.761 153.095 162.929C153.097 161.466 153.1 160.003 153.106 158.54C153.113 156.493 153.114 154.446 153.114 152.399C153.116 151.233 153.118 150.068 153.12 148.866C153.129 145.927 153.129 145.927 152 143C151.917 140.935 151.893 138.867 151.902 136.801C151.906 135.592 151.909 134.384 151.912 133.139C151.92 131.876 151.929 130.613 151.938 129.312C151.942 128.038 151.947 126.764 151.951 125.451C151.963 122.301 151.979 119.15 152 116C152.99 116 153.98 116 155 116C155 148.01 155 180.02 155 213C150.38 213 145.76 213 141 213C141 167.13 141 121.26 141 74Z" fill="#99580F"/>
<path d="M217 75C221.62 75 226.24 75 231 75C231 120.54 231 166.08 231 213C226.38 213 221.76 213 217 213C217 167.46 217 121.92 217 75ZM219 77C219 121.55 219 166.1 219 212C222.3 212 225.6 212 229 212C229 167.45 229 122.9 229 77C225.7 77 222.4 77 219 77Z" fill="#1B0C1F"/>
<path d="M78 255C102.75 255 127.5 255 153 255C153 259.29 153 263.58 153 268C152.34 268.33 151.68 268.66 151 269C151 268.34 151 267.68 151 267C140.11 267 129.22 267 118 267C118 266.01 118 265.02 118 264C119.32 263.34 120.64 262.68 122 262C120.948 261.897 119.896 261.794 118.812 261.688C115.126 261.023 113.034 260.114 110 258C109.67 258.99 109.34 259.98 109 261C107.948 260.814 106.896 260.629 105.812 260.438C102.171 259.817 102.171 259.817 99.3125 260.562C97 261 97 261 95.1992 260.059C92.5457 258.781 90.4312 258.661 87.5 258.5C83.7972 258.297 81.2193 257.883 78 256C78 255.67 78 255.34 78 255Z" fill="#C3782D"/>
<path d="M156 74C156.99 74.33 157.98 74.66 159 75C158.997 75.8744 158.997 75.8744 158.993 76.7664C158.97 83.2803 158.955 89.7942 158.944 96.3081C158.94 98.935 158.935 101.562 158.929 104.189C158.894 120.495 158.995 136.793 159.312 153.097C159.363 155.718 159.411 158.338 159.458 160.958C159.49 162.691 159.521 164.424 159.553 166.157C159.576 167.436 159.576 167.436 159.6 168.741C159.695 173.856 159.81 178.971 159.937 184.085C160.013 187.297 160.072 190.509 160.127 193.722C160.157 195.222 160.193 196.723 160.238 198.223C160.298 200.285 160.333 202.346 160.362 204.408C160.389 205.566 160.416 206.724 160.443 207.917C159.899 211.706 158.714 213.345 156 216C152.984 216.488 152.984 216.488 149.75 216.312C148.672 216.267 147.595 216.222 146.484 216.176C145.665 216.118 144.845 216.06 144 216C143.951 216.771 143.902 217.542 143.852 218.336C143.777 219.339 143.702 220.342 143.625 221.375C143.521 222.872 143.521 222.872 143.414 224.398C143 227 143 227 141 229C141 224.05 141 219.1 141 214C145.95 214 150.9 214 156 214C156 167.8 156 121.6 156 74ZM94 229C109.51 229 125.02 229 141 229C140.67 229.66 140.34 230.32 140 231C137.022 231.506 134.124 231.889 131.125 232.188C129.882 232.33 129.882 232.33 128.613 232.475C122.397 233.132 122.397 233.132 119 232C117.336 231.875 115.668 231.799 114 231.754C113.031 231.721 112.061 231.688 111.062 231.654C109.021 231.593 106.979 231.536 104.938 231.482C103.968 231.448 102.999 231.414 102 231.379C100.67 231.341 100.67 231.341 99.3125 231.303C97 231 97 231 94 229Z" fill="#F1B845"/>
<path d="M205 120C206.32 120 207.64 120 209 120C208.67 120.66 208.34 121.32 208 122C207.01 122.33 206.02 122.66 205 123C205 122.01 205 121.02 205 120ZM201 83C204 86 204 86 204.074 88.582C203.947 89.6481 203.819 90.7141 203.688 91.8125C203.064 98.3721 202.873 104.848 202.875 111.438C202.871 112.372 202.866 113.307 202.862 114.271C202.872 119.289 203.143 124.055 204 129C204 127.02 204 125.04 204 123C210.75 126.75 210.75 126.75 213 129C213.328 131.715 213.131 134.252 213 137C212.505 137.495 212.505 137.495 212 138C211.802 142.616 211.802 142.616 212.625 147.125C213.169 149.844 212.099 151.498 211 154C210.631 155.659 210.287 157.325 210 159C210.66 159.33 211.32 159.66 212 160C212.875 161.812 212.875 161.812 213 164C211.188 166.25 211.188 166.25 209 168C208.34 168 207.68 168 207 168C207 167.34 207 166.68 207 166C206.01 165.67 205.02 165.34 204 165C204 157.08 204 149.16 204 141C203.165 160.353 202.867 179.633 203 199C202.01 199.495 202.01 199.495 201 200C201 161.39 201 122.78 201 83Z" fill="#BD6F2A"/>
<path d="M46 255C56.56 255 67.12 255 78 255C78 259.95 78 264.9 78 270C67.44 270 56.88 270 46 270C46 265.05 46 260.1 46 255Z" fill="#2D2246"/>
<path d="M155 255C165.23 255 175.46 255 186 255C186 259.95 186 264.9 186 270C175.77 270 165.54 270 155 270C155 265.05 155 260.1 155 255Z" fill="#271D44"/>
<path d="M16 44C20.95 44 25.9 44 31 44C31 53.9 31 63.8 31 74C26.05 74 21.1 74 16 74C16 64.1 16 54.2 16 44Z" fill="#1F152D"/>
<path d="M46 30C56.56 30 67.12 30 78 30C78 34.62 78 39.24 78 44C67.44 44 56.88 44 46 44C46 39.38 46 34.76 46 30Z" fill="#FCF3AA"/>
<path d="M46 241C56.23 241 66.46 241 77 241C77.495 247.93 77.495 247.93 78 255C67.44 255 56.88 255 46 255C46 250.38 46 245.76 46 241Z" fill="#B46D30"/>
<path d="M201 45C205.95 45 210.9 45 216 45C216 54.57 216 64.14 216 74C211.05 74 206.1 74 201 74C201 64.43 201 54.86 201 45Z" fill="#10081F"/>
<path d="M155 30C165.23 30 175.46 30 186 30C186 34.62 186 39.24 186 44C175.77 44 165.54 44 155 44C155 39.38 155 34.76 155 30Z" fill="#C8792B"/>
<path d="M78 2C102.75 2 127.5 2 153 2C153 5.3 153 8.6 153 12C152.34 12 151.68 12 151 12C151 9.69 151 7.38 151 5C117.34 4.505 117.34 4.505 83 4C83.33 5.65 83.66 7.3 84 9C84.33 8.34 84.66 7.68 85 7C85.66 7.33 86.32 7.66 87 8C86.67 8.66 86.34 9.32 86 10C87.1584 9.99334 87.1584 9.99334 88.3403 9.98654C95.6094 9.94651 102.879 9.91604 110.148 9.89638C113.885 9.88593 117.623 9.87175 121.36 9.84912C124.965 9.82743 128.57 9.81544 132.175 9.81025C133.552 9.80654 134.929 9.79931 136.306 9.78854C138.231 9.77408 140.156 9.77318 142.082 9.77295C143.179 9.76851 144.276 9.76407 145.406 9.75949C148 10 148 10 150 12C127.56 12 105.12 12 82 12C82 12.66 82 13.32 82 14C106.09 14 130.18 14 155 14C155 14.33 155 14.66 155 15C129.59 15 104.18 15 78 15C78 10.71 78 6.42 78 2Z" fill="#30253C"/>
<path d="M201 214C205.95 214 210.9 214 216 214C216 222.91 216 231.82 216 241C211.05 241 206.1 241 201 241C201 232.09 201 223.18 201 214Z" fill="#271D3E"/>
<path d="M46 16C56.23 16 66.46 16 77 16C77 20.29 77 24.58 77 29C66.77 29 56.54 29 46 29C46 24.71 46 20.42 46 16Z" fill="#291D42"/>
<path d="M76.9999 74C77.6599 74 78.3199 74 78.9999 74C78.9999 120.2 78.9999 166.4 78.9999 214C83.9499 214 88.8999 214 93.9999 214C93.9999 218.95 93.9999 223.9 93.9999 229C91.5009 226.501 90.1948 225.186 88.9999 222C89.3299 221.01 89.6599 220.02 89.9999 219C89.3399 218.67 88.6799 218.34 87.9999 218C88.4949 217.01 88.4949 217.01 88.9999 216C87.0199 216.33 85.0399 216.66 82.9999 217C82.9999 216.34 82.9999 215.68 82.9999 215C81.3499 215.33 79.6999 215.66 77.9999 216C75.6578 209.524 75.7239 203.402 75.757 196.566C75.7551 195.328 75.7532 194.09 75.7513 192.814C75.7482 189.434 75.754 186.054 75.7642 182.674C75.773 179.127 75.7712 175.58 75.7709 172.033C75.7718 166.079 75.7805 160.124 75.7941 154.169C75.8099 147.296 75.8151 140.424 75.8144 133.551C75.8137 126.217 75.8207 118.883 75.8298 111.549C75.832 109.443 75.8327 107.337 75.8331 105.231C75.8343 101.299 75.844 97.3661 75.8547 93.4336C75.8542 92.2729 75.8538 91.1121 75.8533 89.9162C75.8747 84.5046 76.039 79.33 76.9999 74Z" fill="#E1B743"/>
<path d="M16 215C20.95 215 25.9 215 31 215C31 223.58 31 232.16 31 241C26.05 241 21.1 241 16 241C16 232.42 16 223.84 16 215Z" fill="#271C3D"/>
<path d="M187 45C191.29 45 195.58 45 200 45C200 54.9 200 64.8 200 75C195.71 75 191.42 75 187 75C187 65.1 187 55.2 187 45Z" fill="#B86E28"/>
<path d="M156 16C165.9 16 175.8 16 186 16C186 20.29 186 24.58 186 29C176.1 29 166.2 29 156 29C156 24.71 156 20.42 156 16Z" fill="#291B43"/>
<path d="M78 271C103.41 271 128.82 271 155 271C155 274.96 155 278.92 155 283C150.856 284.036 147.979 283.915 143.75 283.562C142.487 283.461 141.223 283.359 139.922 283.254C138.958 283.17 137.993 283.086 137 283C136.505 281.02 136.505 281.02 136 279C138.892 278.174 140.887 278 144 278C144 277.34 144 276.68 144 276C143.06 276.017 143.06 276.017 142.102 276.035C141.284 276.044 140.467 276.053 139.625 276.062C138.813 276.074 138.001 276.086 137.164 276.098C135 276 135 276 133 275C131.367 274.881 129.729 274.823 128.091 274.795C127.07 274.775 126.049 274.755 124.998 274.734C123.892 274.718 122.787 274.701 121.648 274.684C120.519 274.663 119.39 274.642 118.227 274.621C114.61 274.555 110.992 274.496 107.375 274.438C104.927 274.394 102.479 274.351 100.031 274.307C94.0209 274.199 88.0105 274.098 82 274C82 276.97 82 279.94 82 283C81.67 283 81.34 283 81 283C80.67 280.36 80.34 277.72 80 275C79.34 275 78.68 275 78 275C78 273.68 78 272.36 78 271Z" fill="#311B2B"/>
<path d="M32 45C36.29 45 40.58 45 45 45C45 54.57 45 64.14 45 74C40.71 74 36.42 74 32 74C32 64.43 32 54.86 32 45Z" fill="#FCEC8B"/>
<path d="M15 45C15.33 45 15.66 45 16 45C16 54.57 16 64.14 16 74C20.95 74 25.9 74 31 74C31 74.33 31 74.66 31 75C26.05 75 21.1 75 16 75C16 129.78 16 184.56 16 241C15.67 241 15.34 241 15 241C15 186.22 15 131.44 15 75C10.38 75 5.76 75 1 75C1 120.87 1 166.74 1 214C0.67 214 0.34 214 0 214C0 167.8 0 121.6 0 74C4.95 74 9.9 74 15 74C15 64.43 15 54.86 15 45Z" fill="#9C9696"/>
<path d="M217 74C221.95 74 226.9 74 232 74C232 120.2 232 166.4 232 214C227.05 214 222.1 214 217 214C217 222.91 217 231.82 217 241C216.67 241 216.34 241 216 241C216 232.09 216 223.18 216 214C211.05 214 206.1 214 201 214C201 227.53 201 241.06 201 255C200.67 255 200.34 255 200 255C200 250.38 200 245.76 200 241C195.71 241 191.42 241 187 241C187.33 240.01 187.66 239.02 188 238C195.75 237.875 195.75 237.875 198 239C198 230.42 198 221.84 198 213C198.66 213 199.32 213 200 213C200 212.34 200 211.68 200 211C200.99 211 201.98 211 203 211C203 211.66 203 212.32 203 213C207.29 213 211.58 213 216 213C216 207.06 216 201.12 216 195C216.33 195 216.66 195 217 195C217 200.94 217 206.88 217 213C221.62 213 226.24 213 231 213C231 167.46 231 121.92 231 75C226.38 75 221.76 75 217 75C217 74.67 217 74.34 217 74Z" fill="#8B726C"/>
<path d="M16 75C20.95 75 25.9 75 31 75C30.01 76.485 30.01 76.485 29 78C25.5625 78.625 25.5625 78.625 22 79C21.01 79.33 20.02 79.66 19 80C19.2784 80.9281 19.2784 80.9281 19.5625 81.875C20 84 20 84 19 86C18.9053 87.5852 18.8737 89.1745 18.873 90.7625C18.8702 91.7677 18.8674 92.773 18.8645 93.8087C18.8665 94.9157 18.8685 96.0227 18.8706 97.1633C18.8689 98.326 18.8671 99.4887 18.8653 100.687C18.8609 104.548 18.8638 108.409 18.8672 112.27C18.8665 114.945 18.8655 117.621 18.8643 120.296C18.8625 125.913 18.8649 131.529 18.8696 137.146C18.8751 143.635 18.8733 150.124 18.8678 156.613C18.8633 162.185 18.8626 167.756 18.8652 173.327C18.8668 176.654 18.8666 179.982 18.8637 183.309C18.8612 187.022 18.865 190.735 18.8706 194.448C18.8686 195.549 18.8666 196.65 18.8645 197.785C18.8673 198.798 18.8701 199.812 18.873 200.857C18.8734 201.734 18.8738 202.612 18.8742 203.516C19.0048 206.096 19.4317 208.484 20 211C21.98 211 23.96 211 26 211C26.33 211.66 26.66 212.32 27 213C23.37 213 19.74 213 16 213C16 167.46 16 121.92 16 75Z" fill="#FBF2BF"/>
<path d="M32 214C36.29 214 40.58 214 45 214C45 222.58 45 231.16 45 240C40.71 240 36.42 240 32 240C32 231.42 32 222.84 32 214Z" fill="#C07A3B"/>
<path d="M155 241C164.9 241 174.8 241 185 241C184.67 244.96 184.34 248.92 184 253C175.634 253.127 175.634 253.127 172.188 252.438C167.134 251.744 162.023 252.135 157 253C156.34 253.66 155.68 254.32 155 255C155 250.38 155 245.76 155 241Z" fill="#B16C2F"/>
<path d="M80 75C84.29 75 88.58 75 93 75C93 120.54 93 166.08 93 213C92.34 213 91.68 213 91 213C90.9689 202.167 90.9488 191.333 90.9375 180.5C90.9362 179.282 90.9362 179.282 90.9349 178.039C90.9118 153.167 91.0766 128.305 91.5 103.438C91.5179 102.383 91.5179 102.383 91.5362 101.308C91.6807 92.8717 91.8348 84.4357 92 76C91.01 76.66 90.02 77.32 89 78C86.992 77.7189 84.9899 77.3893 83 77C81.7535 78.0244 81.7535 78.0244 81.877 80.2002C81.8779 81.18 81.8788 82.1599 81.8797 83.1694C81.8784 84.2899 81.877 85.4104 81.8756 86.5648C81.8792 87.8048 81.8828 89.0449 81.8865 90.3225C81.8863 91.6199 81.8862 92.9173 81.886 94.2539C81.8857 97.822 81.8916 101.39 81.8986 104.958C81.9048 108.683 81.9054 112.408 81.9066 116.133C81.9097 123.191 81.918 130.25 81.928 137.308C81.9391 145.342 81.9447 153.375 81.9497 161.409C81.9601 177.939 81.9777 194.47 82 211C84.64 211 87.28 211 90 211C90 211.66 90 212.32 90 213C86.7 213 83.4 213 80 213C80 167.46 80 121.92 80 75Z" fill="#FEED91"/>
<path d="M94 214C109.18 214 124.36 214 140 214C140 218.95 140 223.9 140 229C124.82 229 109.64 229 94 229C94 224.05 94 219.1 94 214ZM98 219C95.6302 221.954 95.6302 221.954 96 226C100.231 226.17 104.463 226.33 108.695 226.482C110.131 226.535 111.566 226.59 113.001 226.648C121.093 226.973 128.944 227.064 137 226C137.33 222.7 137.66 219.4 138 216C133.75 215.925 129.5 215.871 125.25 215.835C123.808 215.82 122.366 215.8 120.924 215.774C112.828 215.631 105.506 215.526 98 219Z" fill="#A36115"/>
<path d="M202 75C206.62 75 211.24 75 216 75C216 120.54 216 166.08 216 213C211.71 213 207.42 213 203 213C203 212.67 203 212.34 203 212C206.63 211.67 210.26 211.34 214 211C214 166.45 214 121.9 214 76C210.04 76 206.08 76 202 76C202 75.67 202 75.34 202 75Z" fill="#B87C53"/>
<path d="M138 77C138.66 77.33 139.32 77.66 140 78C140 122.55 140 167.1 140 213C131.09 213 122.18 213 113 213C113 212.67 113 212.34 113 212C120.92 211.67 128.84 211.34 137 211C136.992 207.896 136.992 207.896 136.984 204.729C136.961 194.986 136.947 185.243 136.938 175.5C136.937 174.622 136.936 173.743 136.935 172.838C136.907 140.88 137.249 108.95 138 77Z" fill="#F6BF48"/>
<path d="M219 121C219.33 121 219.66 121 220 121C220 150.37 220 179.74 220 210C220.66 210 221.32 210 222 210C222 202.74 222 195.48 222 188C223.98 187.505 223.98 187.505 226 187C226.33 181.72 226.66 176.44 227 171C229 173 229 173 229.227 176.807C229.227 178.447 229.215 180.087 229.195 181.727C229.192 182.589 229.19 183.452 229.187 184.341C229.176 187.103 229.15 189.864 229.125 192.625C229.115 194.495 229.106 196.365 229.098 198.234C229.076 202.823 229.041 207.411 229 212C225.7 212 222.4 212 219 212C219 181.97 219 151.94 219 121Z" fill="#261C3E"/>
<path d="M187 214C190.63 214 194.26 214 198 214C198 222.25 198 230.5 198 239C194.7 238.67 191.4 238.34 188 238C187.67 238.66 187.34 239.32 187 240C187 231.42 187 222.84 187 214Z" fill="#AE6627"/>
<path d="M18 95C22.5071 103.52 21.6164 114.42 20.5 123.75C19.6301 131.126 19.9226 138.586 20 146C20.66 146.33 21.32 146.66 22 147C21.505 147.495 21.505 147.495 21 148C21 149.072 21 150.145 21 151.25C21 154.424 20.6464 156.93 20 160C19.963 161.666 19.9524 163.334 20 165C20.66 165.33 21.32 165.66 22 166C21.34 166 20.68 166 20 166C19.7956 170.417 19.7956 170.417 20.5352 174.727C21.2462 178.204 20.784 181.616 20.5 185.125C19.5221 196.931 19.5221 196.931 23 208C24.98 208 26.96 208 29 208C29.33 209.98 29.66 211.96 30 214C25.38 214 20.76 214 16 214C16 213.67 16 213.34 16 213C20.95 212.505 20.95 212.505 26 212C24.02 212 22.04 212 20 212C17.6059 206.364 17.7304 201.139 17.7729 195.129C17.7727 194.046 17.7724 192.962 17.7721 191.846C17.7735 188.275 17.789 184.704 17.8047 181.133C17.8084 178.653 17.8113 176.173 17.8133 173.693C17.8209 167.173 17.8405 160.653 17.8627 154.133C17.8842 147.476 17.8923 140.82 17.9023 134.164C17.9238 121.109 17.9575 108.055 18 95Z" fill="#F6EDA9"/>
<path d="M3 77C6.3 77 9.6 77 13 77C13.0291 80.8958 13.0468 84.7916 13.0625 88.6875C13.0709 89.7903 13.0793 90.8931 13.0879 92.0293C13.0911 93.096 13.0943 94.1627 13.0977 95.2617C13.1029 96.241 13.1081 97.2203 13.1135 98.2292C13.0031 100.925 12.6053 103.375 12 106C11.67 106 11.34 106 11 106C10.1172 101.482 9.8941 97.2249 9.9375 92.625C9.94652 91.3798 9.95555 90.1345 9.96484 88.8516C9.98225 87.44 9.98225 87.44 10 86C9.01 85.67 8.02 85.34 7 85C6.67 84.67 6.34 84.34 6 84C5.67 125.25 5.34 166.5 5 209C5.99 209.33 6.98 209.66 8 210C8 210.66 8 211.32 8 212C6.68 212 5.36 212 4 212C3.67 167.45 3.34 122.9 3 77Z" fill="#312747"/>
<path d="M94 60C109.18 60 124.36 60 140 60C140 64.62 140 69.24 140 74C124.82 74 109.64 74 94 74C94 69.38 94 64.76 94 60ZM96 63C95.8332 66.5834 95.8332 66.5834 96 70C105.049 71.1424 114.025 71.1143 123.125 71.0625C124.669 71.0575 126.214 71.0529 127.758 71.0488C131.505 71.0379 135.253 71.0207 139 71C139 67.7 139 64.4 139 61C133.198 60.9507 127.395 60.9143 121.593 60.8901C119.618 60.8801 117.643 60.8664 115.668 60.8491C112.833 60.8249 109.999 60.8135 107.164 60.8047C106.278 60.7944 105.391 60.784 104.478 60.7734C99.7552 60.5334 99.7552 60.5334 96 63Z" fill="#FCE881"/>
<path d="M78 15C98.46 15 118.92 15 140 15C140 15.33 140 15.66 140 16C119.87 16 99.74 16 79 16C80.0431 17.2665 80.0431 17.2665 82.3601 17.1203C83.929 17.1169 83.929 17.1169 85.5295 17.1135C87.3013 17.1134 87.3013 17.1134 89.1088 17.1133C91.0369 17.1056 91.0369 17.1056 93.0039 17.0977C94.3121 17.0962 95.6202 17.0948 96.968 17.0934C100.452 17.0895 103.935 17.0797 107.419 17.0687C110.971 17.0584 114.524 17.0539 118.076 17.0488C125.051 17.0381 132.025 17.021 139 17C138.361 17.1238 137.721 17.2475 137.062 17.375C136.382 17.5812 135.701 17.7875 135 18C134.67 18.66 134.34 19.32 134 20C133.322 19.9278 132.644 19.8556 131.945 19.7812C123.877 18.9766 116.065 18.5937 108 19.5625C103.632 20.0631 99.6756 19.7344 95.3281 19.1875C92.1326 18.9301 89.1509 19.4856 86 20C85.01 19.67 84.02 19.34 83 19C83 19.99 83 20.98 83 22C82.67 22.33 82.34 22.66 82 23C82.33 23 82.66 23 83 23C83 24.65 83 26.3 83 28C81.35 28.33 79.7 28.66 78 29C78 24.38 78 19.76 78 15Z" fill="#EEE3AE"/>
<path d="M154 247C154.33 247 154.66 247 155 247C155 249.64 155 252.28 155 255C129.59 255 104.18 255 78 255C78.33 252.69 78.66 250.38 79 248C79.66 249.32 80.32 250.64 81 252C82.8872 252.031 82.8872 252.031 84.8125 252.062C85.5202 252.074 86.2279 252.086 86.957 252.098C89.2031 252.083 89.2031 252.083 92 251C93.4679 250.984 94.937 251.032 96.4023 251.121C97.7242 251.194 97.7242 251.194 99.0728 251.268C100.491 251.352 100.491 251.352 101.938 251.438C109.67 251.842 117.382 252.114 125.125 252.125C125.959 252.129 126.793 252.134 127.652 252.138C131.27 252.13 134.519 251.978 138 251C138 251.66 138 252.32 138 253C138.915 252.916 139.83 252.832 140.773 252.746C141.962 252.644 143.15 252.542 144.375 252.438C145.558 252.333 146.742 252.229 147.961 252.121C151 252 151 252 153 253C153.33 251.02 153.66 249.04 154 247Z" fill="#F3B745"/>
<path d="M219 77C222.3 77 225.6 77 229 77C229 82.94 229 88.88 229 95C228.67 95 228.34 95 228 95C227.67 91.7 227.34 88.4 227 85C227.012 85.7361 227.023 86.4721 227.035 87.2305C227.044 88.2063 227.053 89.1821 227.062 90.1875C227.074 91.1504 227.086 92.1134 227.098 93.1055C227.005 95.8637 226.567 98.3073 226 101C225.962 103.333 225.954 105.667 226 108C225.01 108.33 224.02 108.66 223 109C222.67 109.66 222.34 110.32 222 111C222 100.11 222 89.22 222 78C221.34 78 220.68 78 220 78C220.041 79.2012 220.082 80.4025 220.124 81.6401C220.272 86.0865 220.406 90.5331 220.537 94.98C220.596 96.9065 220.658 98.833 220.724 100.759C220.818 103.524 220.898 106.289 220.977 109.055C221.025 110.352 221.025 110.352 221.074 111.675C221.127 113.783 221.073 115.893 221 118C220.34 118.66 219.68 119.32 219 120C219 105.81 219 91.62 219 77Z" fill="#271C46"/>
<path d="M28 46C29.1094 51.3287 29.1155 56.4628 29.0625 61.875C29.058 62.7541 29.0535 63.6333 29.0488 64.5391C29.0371 66.6927 29.0192 68.8464 29 71C25.7 71 22.4 71 19 71C19 63.08 19 55.16 19 47C19.33 47 19.66 47 20 47C20 49.31 20 51.62 20 54C21.32 53.67 22.64 53.34 24 53C24 52.01 24 51.02 24 50C24.66 50 25.32 50 26 50C26 49.34 26 48.68 26 48C25.34 47.67 24.68 47.34 24 47C26 46 26 46 28 46Z" fill="#291D41"/>
<path d="M153 255C153.66 255 154.32 255 155 255C155 259.95 155 264.9 155 270C129.59 270 104.18 270 78 270C78 265.38 78 260.76 78 256C78.99 256.495 78.99 256.495 80 257C80 260.3 80 263.6 80 267C103.76 267.33 127.52 267.66 152 268C152.495 261.565 152.495 261.565 153 255Z" fill="#BB8257"/>
<path d="M201 83C204 86 204 86 204.078 88.5461C203.951 89.6029 203.824 90.6597 203.694 91.7485C203.098 98.0802 202.886 104.318 202.886 110.677C202.886 111.652 202.885 112.627 202.885 113.632C202.887 116.762 202.894 119.893 202.902 123.023C202.904 125.223 202.906 127.423 202.907 129.622C202.91 135.366 202.92 141.11 202.931 146.854C202.942 152.733 202.946 158.613 202.951 164.492C202.962 175.995 202.979 187.497 203 199C202.01 199.495 202.01 199.495 201 200C201 161.39 201 122.78 201 83Z" fill="#B9711A"/>
<path d="M213 46C213.33 46 213.66 46 214 46C214 54.91 214 63.82 214 73C210.7 73 207.4 73 204 73C204 64.42 204 55.84 204 47C206.31 47 208.62 47 211 47C210.836 47.6432 210.673 48.2865 210.504 48.9492C209.847 52.9284 209.894 56.7881 209.938 60.8125C209.942 61.6008 209.947 62.389 209.951 63.2012C209.963 65.1341 209.981 67.0671 210 69C210.99 69 211.98 69 213 69C213 61.41 213 53.82 213 46Z" fill="#261B3F"/>
<path d="M186 30C190.62 30 195.24 30 200 30C200 34.62 200 39.24 200 44C195.38 44 190.76 44 186 44C186 39.38 186 34.76 186 30Z" fill="#2A1524"/>
<path d="M153 272C153.33 272 153.66 272 154 272C154.495 278.435 154.495 278.435 155 285C129.59 285 104.18 285 78 285C78 281.7 78 278.4 78 275C78.99 274.67 79.98 274.34 81 274C81 277.3 81 280.6 81 284C81.66 284 82.32 284 83 284C83 282.35 83 280.7 83 279C83.33 280.32 83.66 281.64 84 283C84.8349 282.998 85.6699 282.996 86.5301 282.993C94.3879 282.973 102.246 282.958 110.104 282.948C114.144 282.943 118.184 282.936 122.224 282.925C126.12 282.914 130.017 282.908 133.914 282.905C135.403 282.903 136.892 282.9 138.38 282.894C140.461 282.887 142.542 282.886 144.623 282.886C145.808 282.884 146.994 282.882 148.216 282.88C151 283 151 283 153 284C153 280.04 153 276.08 153 272Z" fill="#120B24"/>
<path d="M32 79C32.33 79 32.66 79 33 79C33.0063 79.8294 33.0063 79.8294 33.0128 80.6755C33.1161 94.1294 33.2248 107.583 33.3393 121.037C33.3946 127.543 33.448 134.049 33.4973 140.556C33.545 146.832 33.5973 153.108 33.6529 159.385C33.6734 161.782 33.6921 164.179 33.7091 166.576C33.7331 169.928 33.7632 173.28 33.7947 176.632C33.8004 177.627 33.8062 178.623 33.8121 179.648C33.8219 180.563 33.8317 181.477 33.8418 182.419C33.8482 183.212 33.8547 184.004 33.8613 184.821C33.9996 186.994 34.4734 188.895 35 191C34.6712 192.668 34.3369 194.334 34 196C33.8724 198.938 33.9055 201.872 33.9375 204.812C33.942 205.601 33.9465 206.389 33.9512 207.201C33.9629 209.134 33.9808 211.067 34 213C32.68 213.33 31.36 213.66 30 214C30.0286 213.32 30.0573 212.639 30.0868 211.938C30.7929 194.869 31.1886 177.821 31.3164 160.738C31.3371 158.355 31.3581 155.973 31.3794 153.59C31.4337 147.42 31.4835 141.251 31.5322 135.081C31.5831 128.745 31.6384 122.409 31.6934 116.072C31.7998 103.715 31.9015 91.3575 32 79Z" fill="#DDB136"/>
<path d="M139 21C139.33 21 139.66 21 140 21C140 23.64 140 26.28 140 29C125.15 29 110.3 29 95 29C98 25 98 25 101.701 24.2561C105.726 23.9412 109.745 23.8861 113.781 23.9023C114.48 23.9038 115.179 23.9052 115.899 23.9066C118.1 23.9122 120.3 23.9247 122.5 23.9375C124.005 23.9425 125.51 23.9471 127.016 23.9512C130.677 23.9621 134.339 23.9793 138 24C138.33 23.01 138.66 22.02 139 21Z" fill="#FAE784"/>
<path d="M187 241C191.29 241 195.58 241 200 241C200 245.62 200 250.24 200 255C195.71 255 191.42 255 187 255C187 250.38 187 245.76 187 241Z" fill="#271C3C"/>
<path d="M32 30C36.29 30 40.58 30 45 30C45 34.62 45 39.24 45 44C40.71 44 36.42 44 32 44C32 39.38 32 34.76 32 30Z" fill="#1B112F"/>
<path d="M50.7756 240.886C51.9853 240.892 53.195 240.897 54.4414 240.902C55.7466 240.906 57.0518 240.909 58.3965 240.912C59.7852 240.92 61.1738 240.929 62.5625 240.938C63.9551 240.943 65.3477 240.947 66.7402 240.951C70.1602 240.963 73.5801 240.979 77 241C77 244.3 77 247.6 77 251C76.34 251 75.68 251 75 251C75 250.34 75 249.68 75 249C73.68 249 72.36 249 71 249C71 249.99 71 250.98 71 252C69.68 251.67 68.36 251.34 67 251C65.875 246.25 65.875 246.25 67 244C60.07 243.505 60.07 243.505 53 243C53.33 244.32 53.66 245.64 54 247C54.0379 248.666 54.0463 250.334 54 252C52.02 252.33 50.04 252.66 48 253C47.806 251.188 47.62 249.376 47.4375 247.562C47.3331 246.553 47.2287 245.544 47.1211 244.504C47.0811 243.678 47.0412 242.851 47 242C48 241 48 241 50.7756 240.886Z" fill="#BA7124"/>
<path d="M45 15C55.89 15 66.78 15 78 15C78 19.95 78 24.9 78 30C67.44 30 56.88 30 46 30C46 34.62 46 39.24 46 44C45.67 44.33 45.34 44.66 45 45C40.71 45 36.42 45 32 45C32 54.57 32 64.14 32 74C31.67 74 31.34 74 31 74C31 59.15 31 44.3 31 29C35.62 29 40.24 29 45 29C45 24.38 45 19.76 45 15ZM46 16C46 20.29 46 24.58 46 29C56.23 29 66.46 29 77 29C77 24.71 77 20.42 77 16C66.77 16 56.54 16 46 16ZM32 30C32 34.62 32 39.24 32 44C36.29 44 40.58 44 45 44C45 39.38 45 34.76 45 30C40.71 30 36.42 30 32 30Z" fill="#898076"/>
<path d="M141 17C149.496 16.9023 149.496 16.9023 152 17C153.589 18.5889 153.17 20.248 153.188 22.4375C153.202 23.2406 153.216 24.0437 153.23 24.8711C153 27 153 27 151 29C150.505 27.515 150.505 27.515 150 26C147.985 25.2668 147.985 25.2668 146 25C145.443 25.9488 144.886 26.8975 144.312 27.875C141.912 31.1185 140.868 32.1298 137 33C135.659 32.6973 134.326 32.3616 133 32C132.051 32.165 131.103 32.33 130.125 32.5C127 33 127 33 124 32.4375C120.439 31.9182 118.298 32.665 115 34C115 33.34 115 32.68 115 32C114.402 32.2062 113.804 32.4125 113.188 32.625C111 33 111 33 108 31C115.399 30.0902 122.675 29.8759 130.125 29.9375C131.703 29.9443 131.703 29.9443 133.312 29.9512C135.875 29.9628 138.438 29.9807 141 30C141 25.71 141 21.42 141 17Z" fill="#E1B036"/>
<path d="M78 0C103.41 0 128.82 0 155 0C154.67 2.97 154.34 5.94 154 9C153.67 9 153.34 9 153 9C153 6.69 153 4.38 153 2C128.91 2 104.82 2 80 2C80 5.96 80 9.92 80 14C79.67 14 79.34 14 79 14C78.67 9.38 78.34 4.76 78 0Z" fill="#120A22"/>
<path d="M129 55C129.66 55.33 130.32 55.66 131 56C131 56.66 131 57.32 131 58C131.99 57.34 132.98 56.68 134 56C136.74 56.0314 139.284 56.5548 142 57C142 58.32 142 59.64 142 61C142.66 61.33 143.32 61.66 144 62C144.594 64.6486 144.742 67.292 145 70C149.95 70.99 149.95 70.99 155 72C155 72.33 155 72.66 155 73C150.05 73.33 145.1 73.66 140 74C140 69.38 140 64.76 140 60C124.82 60 109.64 60 94 60C94 59.67 94 59.34 94 59C94.8471 58.9499 95.6942 58.8998 96.5669 58.8481C99.7319 58.657 102.896 58.4586 106.061 58.2554C107.426 58.1691 108.791 58.0858 110.157 58.0054C112.129 57.8888 114.1 57.7609 116.07 57.6328C117.254 57.5595 118.437 57.4862 119.657 57.4106C122.998 57.0003 125.82 56.0607 129 55Z" fill="#E9C14F"/>
<path d="M46 256C55.9 256 65.8 256 76 256C76 256.66 76 257.32 76 258C66.76 258 57.52 258 48 258C48.33 259.32 48.66 260.64 49 262C48.5625 264.75 48.5625 264.75 48 267C48.8377 266.984 49.6755 266.969 50.5386 266.952C53.6434 266.901 56.7479 266.864 59.853 266.835C61.8592 266.813 63.8652 266.775 65.8711 266.736C67.1279 266.727 68.3848 266.717 69.6797 266.707C70.8423 266.691 72.0048 266.676 73.2026 266.659C74.1258 266.772 75.0489 266.884 76 267C76.99 268.485 76.99 268.485 78 270C67.44 270 56.88 270 46 270C46 265.38 46 260.76 46 256Z" fill="#27192D"/>
<path d="M32 241C36.29 241 40.58 241 45 241C45 245.29 45 249.58 45 254C40.71 254 36.42 254 32 254C32 249.71 32 245.42 32 241Z" fill="#160D21"/>
<path d="M16 75C20.29 75 24.58 75 29 75C28.67 75.66 28.34 76.32 28 77C24.7 77.33 21.4 77.66 18 78C18 122.55 18 167.1 18 213C17.34 213 16.68 213 16 213C16 167.46 16 121.92 16 75Z" fill="#FCF5D4"/>
<path d="M185 241C185.66 241 186.32 241 187 241C187 250.9 187 260.8 187 271C176.44 271 165.88 271 155 271C155 270.67 155 270.34 155 270C165.23 270 175.46 270 186 270C186 265.05 186 260.1 186 255C176.1 255 166.2 255 156 255C156.33 254.01 156.66 253.02 157 252C175.736 250.245 175.736 250.245 184 253C183.988 252.301 183.977 251.603 183.965 250.883C183.956 249.973 183.947 249.063 183.938 248.125C183.926 247.22 183.914 246.315 183.902 245.383C184 243 184 243 185 241Z" fill="#A0775F"/>
<path d="M32 45C36.29 45 40.58 45 45 45C43 49 43 49 40.5625 50.3125C38 51 38 51 35 50C35.3158 50.5595 35.6316 51.1189 35.957 51.6953C38.5025 57.3201 38.4022 64.0796 37 70C36.01 70 35.02 70 34 70C34 71.32 34 72.64 34 74C33.34 74 32.68 74 32 74C32 64.43 32 54.86 32 45Z" fill="#F9ECA8"/>
<path d="M156 16C165.9 16 175.8 16 186 16C186 20.29 186 24.58 186 29C176.1 29 166.2 29 156 29C156 24.71 156 20.42 156 16ZM158 18C158 20.97 158 23.94 158 27C162.125 27.0578 166.25 27.0935 170.375 27.125C171.551 27.1418 172.726 27.1585 173.938 27.1758C175.059 27.1822 176.18 27.1887 177.336 27.1953C178.373 27.2058 179.41 27.2163 180.478 27.2271C183.171 27.2562 183.171 27.2562 185 25C184.67 22.69 184.34 20.38 184 18C175.42 18 166.84 18 158 18Z" fill="#1D1128"/>
<path d="M31 74C35.62 74 40.24 74 45 74C45 74.33 45 74.66 45 75C41.37 75 37.74 75 34 75C34 75.66 34 76.32 34 77C33.01 77 32.02 77 31 77C31 121.88 31 166.76 31 213C30.67 213 30.34 213 30 213C29.9767 195.172 29.959 177.344 29.9482 159.516C29.9431 151.238 29.936 142.961 29.9246 134.684C29.9146 127.471 29.9082 120.258 29.9059 113.046C29.9046 109.225 29.9016 105.404 29.8943 101.583C29.8875 97.9899 29.8854 94.3966 29.8869 90.8032C29.8865 88.8498 29.8811 86.8964 29.8756 84.943C29.877 83.7876 29.8784 82.6321 29.8798 81.4416C29.8789 80.4331 29.8779 79.4247 29.877 78.3857C30 76 30 76 31 74Z" fill="#EED06B"/>
<path d="M201 214C205.95 214 210.9 214 216 214C216 222.91 216 231.82 216 241C211.05 241 206.1 241 201 241C201 232.09 201 223.18 201 214ZM204 216C202.761 217.016 202.761 217.016 202.886 219.133C202.892 220.049 202.897 220.966 202.902 221.91C202.906 222.9 202.909 223.889 202.912 224.908C202.92 225.949 202.929 226.99 202.938 228.062C202.942 229.107 202.947 230.152 202.951 231.229C202.963 233.819 202.981 236.41 203 239C206.63 239 210.26 239 214 239C214 231.41 214 223.82 214 216C210.7 216 207.4 216 204 216Z" fill="#241321"/>
<path d="M46 16C56.23 16 66.46 16 77 16C77 20.29 77 24.58 77 29C66.77 29 56.54 29 46 29C46 24.71 46 20.42 46 16ZM47 18C47 20.97 47 23.94 47 27C56.24 27 65.48 27 75 27C75.33 24.03 75.66 21.06 76 18C66.43 18 56.86 18 47 18Z" fill="#1F1627"/>
<path d="M155 255C165.23 255 175.46 255 186 255C186 259.95 186 264.9 186 270C185.34 270 184.68 270 184 270C184 266.04 184 262.08 184 258C175.09 258 166.18 258 157 258C157 261.96 157 265.92 157 270C156.34 270 155.68 270 155 270C155 265.05 155 260.1 155 255Z" fill="#391F23"/>
<path d="M16 215C20.95 215 25.9 215 31 215C31 223.58 31 232.16 31 241C26.05 241 21.1 241 16 241C16 232.42 16 223.84 16 215ZM18 216C18 223.59 18 231.18 18 239C21.63 239 25.26 239 29 239C29 231.41 29 223.82 29 216C25.37 216 21.74 216 18 216Z" fill="#2E1B23"/>
<path d="M79 16C99.13 16 119.26 16 140 16C139 24 139 24 138 25C135.809 24.9098 133.622 24.7533 131.438 24.5625C130.24 24.4607 129.042 24.3588 127.809 24.2539C126.882 24.1701 125.955 24.0863 125 24C125.777 22.043 125.777 22.043 127 20C130.562 19.3125 130.562 19.3125 134 19C134.33 18.67 134.66 18.34 135 18C116.85 17.67 98.7 17.34 80 17C79.67 17.66 79.34 18.32 79 19C79 18.01 79 17.02 79 16Z" fill="#FBF0AB"/>
<path d="M140 15C144.95 15 149.9 15 155 15C155 19.62 155 24.24 155 29C154.67 29 154.34 29 154 29C153.939 28.3735 153.879 27.747 153.816 27.1016C153.733 26.2843 153.649 25.467 153.562 24.625C153.481 23.8129 153.4 23.0008 153.316 22.1641C153.109 19.9573 153.109 19.9573 152 18C148.349 17.3962 144.696 17.2549 141 17C141 21.29 141 25.58 141 30C120.21 30.33 99.42 30.66 78 31C78 30.34 78 29.68 78 29C98.46 29 118.92 29 140 29C140 24.38 140 19.76 140 15Z" fill="#EBCE66"/>
<path d="M78 271C78.5759 271.071 79.1517 271.141 79.745 271.214C86.7084 271.997 93.5833 272.146 100.586 272.133C101.764 272.134 102.942 272.135 104.156 272.136C106.635 272.136 109.115 272.135 111.594 272.13C115.357 272.125 119.12 272.13 122.883 272.137C125.305 272.136 127.727 272.135 130.148 272.133C131.813 272.136 131.813 272.136 133.511 272.139C140.728 272.118 147.815 271.68 155 271C155 274.96 155 278.92 155 283C154.67 283 154.34 283 154 283C153.505 278.545 153.505 278.545 153 274C129.57 274 106.14 274 82 274C82 276.97 82 279.94 82 283C81.67 283 81.34 283 81 283C80.67 280.36 80.34 277.72 80 275C79.34 275 78.68 275 78 275C78 273.68 78 272.36 78 271Z" fill="#37263A"/>
<path d="M155 30C155.33 30.66 155.66 31.32 156 32C156.66 32.33 157.32 32.66 158 33C158.407 35.3216 158.744 37.6569 159 40C161.97 40.495 161.97 40.495 165 41C165.33 40.01 165.66 39.02 166 38C166.99 38.33 167.98 38.66 169 39C168.67 39.66 168.34 40.32 168 41C173.61 41 179.22 41 185 41C185.33 41.99 185.66 42.98 186 44C175.77 44 165.54 44 155 44C155 39.38 155 34.76 155 30Z" fill="#BD771E"/>
<path d="M48 18C57.24 18 66.48 18 76 18C75.67 20.97 75.34 23.94 75 27C74.34 27 73.68 27 73 27C73 24.36 73 21.72 73 19C72.34 19 71.68 19 71 19C71 20.65 71 22.3 71 24C68.6569 23.7444 66.3216 23.4073 64 23C63.67 22.34 63.34 21.68 63 21C63.66 21 64.32 21 65 21C65 20.34 65 19.68 65 19C63.35 19.33 61.7 19.66 60 20C60.66 20.33 61.32 20.66 62 21C62 21.66 62 22.32 62 23C57.38 23 52.76 23 48 23C48 21.35 48 19.7 48 18Z" fill="#2F244A"/>
<path d="M141 216C141.33 216 141.66 216 142 216C142 220.29 142 224.58 142 229C141.67 229 141.34 229 141 229C141 224.71 141 220.42 141 216ZM94 229C109.51 229 125.02 229 141 229C140.67 229.66 140.34 230.32 140 231C137.022 231.506 134.124 231.889 131.125 232.188C129.882 232.33 129.882 232.33 128.613 232.475C122.397 233.132 122.397 233.132 119 232C117.336 231.875 115.668 231.799 114 231.754C113.031 231.721 112.061 231.688 111.062 231.654C109.021 231.593 106.979 231.536 104.938 231.482C103.968 231.448 102.999 231.414 102 231.379C100.67 231.341 100.67 231.341 99.3125 231.303C97 231 97 231 94 229Z" fill="#E9AC46"/>
<path d="M22 217C24.31 217 26.62 217 29 217C29 222.61 29 228.22 29 234C26.69 233.67 24.38 233.34 22 233C22 227.72 22 222.44 22 217Z" fill="#34274B"/>
<path d="M77 30C77.33 30 77.66 30 78 30C78 34.62 78 39.24 78 44C67.77 44 57.54 44 47 44C47.33 41.36 47.66 38.72 48 36C50 38 50 38 50 41C50.9436 40.766 50.9436 40.766 51.9062 40.5273C57.6886 39.2124 62.1675 38.9199 68 40C68 40.99 68 41.98 68 43C70.97 43 73.94 43 77 43C77 38.71 77 34.42 77 30Z" fill="#F9E47F"/>
<path d="M46 255C56.56 255 67.12 255 78 255C78 259.62 78 264.24 78 269C75.36 268.34 72.72 267.68 70 267C70 266.01 70 265.02 70 264C70.66 264 71.32 264 72 264C72.33 263.01 72.66 262.02 73 261C73.33 260.67 73.66 260.34 74 260C70.6575 259.926 68.1964 259.935 65 261C62.8125 260.062 62.8125 260.062 61 259C62 258 62 258 65.1602 257.902C67.0918 257.92 67.0918 257.92 69.0625 257.938C70.3529 257.947 71.6432 257.956 72.9727 257.965C73.9717 257.976 74.9707 257.988 76 258C76 257.34 76 256.68 76 256C66.1 256 56.2 256 46 256C46 255.67 46 255.34 46 255Z" fill="#513132"/>
<path d="M48 45C50.8892 44.6595 50.8892 44.6595 54.5391 44.7071C56.492 44.7216 56.492 44.7216 58.4844 44.7364C59.8646 44.7614 61.2448 44.7868 62.625 44.8125C64.013 44.8276 65.401 44.8413 66.7891 44.8536C70.1931 44.889 73.5964 44.9384 77 45C77 45.33 77 45.66 77 46C71.3072 46.5673 65.7235 47 60 47C59.01 47.495 59.01 47.495 58 48C57.3813 47.7938 56.7625 47.5875 56.125 47.375C53.8648 46.7291 53.8648 46.7291 51.75 48.4375C51.1725 48.9532 50.595 49.4688 50 50C49.67 49.67 49.34 49.34 49 49C48.67 57.25 48.34 65.5 48 74C47.34 73.67 46.68 73.34 46 73C45.942 68.8959 45.9064 64.7919 45.875 60.6875C45.8582 59.5203 45.8415 58.3531 45.8242 57.1504C45.8178 56.0322 45.8113 54.9139 45.8047 53.7618C45.7942 52.7301 45.7837 51.6985 45.7729 50.6355C46 48 46 48 48 45Z" fill="#DFB234"/>
<path d="M93 56C93.5346 56.163 94.0693 56.326 94.6201 56.4939C97.4938 57.105 100.14 57.1121 103.078 57.0977C104.818 57.0928 104.818 57.0928 106.594 57.0879C107.8 57.0795 109.007 57.0711 110.25 57.0625C111.472 57.058 112.694 57.0535 113.953 57.0488C116.969 57.037 119.984 57.0206 123 57C123 57.33 123 57.66 123 58C108.645 58.99 108.645 58.99 94 60C93.67 64.29 93.34 68.58 93 73C92 74 92 74 89.0586 74.0977C87.8636 74.0861 86.6687 74.0745 85.4375 74.0625C83.6412 74.049 83.6412 74.049 81.8086 74.0352C80.8818 74.0236 79.9549 74.012 79 74C79 73.34 79 72.68 79 72C83.3165 71.2383 86.7443 70.8394 91 72C90.8556 70.7213 90.7113 69.4425 90.5625 68.125C90.4407 67.0461 90.4407 67.0461 90.3164 65.9453C90.0871 63.926 90.0871 63.926 89 62C89.66 62 90.32 62 91 62C91.66 60.02 92.32 58.04 93 56Z" fill="#E1B538"/>
<path d="M201 46C204.3 46 207.6 46 211 46C211 46.33 211 46.66 211 47C208.69 47 206.38 47 204 47C204 55.58 204 64.16 204 73C207.63 73 211.26 73 215 73C215 73.33 215 73.66 215 74C210.38 74 205.76 74 201 74C201 64.76 201 55.52 201 46Z" fill="#28101D"/>
<path d="M157 258C157.33 258 157.66 258 158 258C158 260.97 158 263.94 158 267C165.59 267 173.18 267 181 267C180.67 264.69 180.34 262.38 180 260C180.66 260 181.32 260 182 260C182.144 261.093 182.289 262.186 182.438 263.312C182.883 266.931 182.883 266.931 184 270C175.09 270 166.18 270 157 270C157 266.04 157 262.08 157 258Z" fill="#1F1636"/>
<path d="M156 30C165.9 30 175.8 30 186 30C186 34.29 186 38.58 186 43C183.64 40.6405 183.509 39.221 183 36C182.01 36 181.02 36 180 36C179.67 35.01 179.34 34.02 179 33C167.615 32.505 167.615 32.505 156 32C156 31.34 156 30.68 156 30Z" fill="#C58244"/>
<path d="M187 241C191.29 241 195.58 241 200 241C200 245.29 200 249.58 200 254C199.34 254 198.68 254 198 254C198 250.37 198 246.74 198 243C195.36 243.33 192.72 243.66 190 244C190 245.65 190 247.3 190 249C190.66 249.33 191.32 249.66 192 250C191.34 250 190.68 250 190 250C190 250.66 190 251.32 190 252C192.97 252.495 192.97 252.495 196 253C196 253.33 196 253.66 196 254C193.03 254 190.06 254 187 254C187 249.71 187 245.42 187 241Z" fill="#261322"/>
<path d="M158 258C166.58 258 175.16 258 184 258C184 261.3 184 264.6 184 268C183.34 267.67 182.68 267.34 182 267C182 264.69 182 262.38 182 260C171.605 260.495 171.605 260.495 161 261C161.33 262.65 161.66 264.3 162 266C160.68 266.33 159.36 266.66 158 267C158 264.03 158 261.06 158 258Z" fill="#342646"/>
<path d="M203 139C205.636 142.909 205.271 147.087 205.23 151.613C205.23 152.46 205.229 153.306 205.229 154.179C205.226 155.975 205.218 157.771 205.206 159.568C205.188 162.265 205.185 164.961 205.185 167.658C205.164 177.813 204.841 187.878 204 198C203.67 198 203.34 198 203 198C201.6 155.566 201.6 155.566 203 139Z" fill="#C57A2E"/>
<path d="M108.945 74.9023C110.273 74.9044 110.273 74.9044 111.627 74.9066C114.46 74.9122 117.292 74.9248 120.125 74.9375C122.043 74.9425 123.961 74.947 125.879 74.9511C130.586 74.9622 135.293 74.9794 140 75C139.67 75.99 139.34 76.98 139 78C138.229 77.9162 137.458 77.8324 136.664 77.7461C135.661 77.6442 134.658 77.5424 133.625 77.4375C132.627 77.3331 131.63 77.2286 130.602 77.1211C128.016 76.7885 128.016 76.7885 126 78C124.064 78.0972 122.125 78.1297 120.188 78.125C118.631 78.1288 118.631 78.1288 117.043 78.1328C114.241 78.0105 111.739 77.5533 109 77C104.822 77.3601 102.514 77.6572 99 80C98.67 78.68 98.34 77.36 98 76C101.384 74.308 105.225 74.8801 108.945 74.9023Z" fill="#DFB235"/>
<path d="M46 212C48 214 48 214 48.2271 216.43C48.2166 217.425 48.2061 218.42 48.1953 219.445C48.1889 220.522 48.1824 221.598 48.1758 222.707C48.159 223.835 48.1423 224.963 48.125 226.125C48.116 227.261 48.107 228.396 48.0977 229.566C48.074 232.378 48.0382 235.189 48 238C53.61 238.33 59.22 238.66 65 239C65 239.33 65 239.66 65 240C58.4 240 51.8 240 45 240C44.9731 235.708 44.9532 231.417 44.9375 227.125C44.9291 225.902 44.9207 224.678 44.9121 223.418C44.9089 222.251 44.9057 221.085 44.9023 219.883C44.8971 218.804 44.8919 217.725 44.8865 216.614C45 214 45 214 46 212Z" fill="#F0B540"/>
<path d="M34 214C37.63 214 41.26 214 45 214C45 214.99 45 215.98 45 217C44.01 217.495 44.01 217.495 43 218C43 220.31 43 222.62 43 225C42.67 224.34 42.34 223.68 42 223C41.34 223 40.68 223 40 223C40 224.65 40 226.3 40 228C39.34 228 38.68 228 38 228C37.67 226.68 37.34 225.36 37 224C36.01 224.495 36.01 224.495 35 225C35.0206 223.928 35.0412 222.855 35.0625 221.75C35.1402 217.919 35.1402 217.919 34 214Z" fill="#CD7E2B"/>
<path d="M46 241C46.99 241.495 46.99 241.495 48 242C48 245.63 48 249.26 48 253C56.91 253 65.82 253 75 253C75.33 253.66 75.66 254.32 76 255C66.1 255 56.2 255 46 255C46 250.38 46 245.76 46 241Z" fill="#AC754F"/>
<path d="M219 77C222.3 77 225.6 77 229 77C229 82.94 229 88.88 229 95C228.67 95 228.34 95 228 95C227.67 89.72 227.34 84.44 227 79C224.876 78.7739 224.876 78.7739 223.375 80.5C222.921 80.995 222.468 81.49 222 82C222 80.68 222 79.36 222 78C221.34 78 220.68 78 220 78C220.041 79.2012 220.082 80.4025 220.124 81.6401C220.272 86.0865 220.406 90.5331 220.537 94.98C220.596 96.9065 220.658 98.833 220.724 100.759C220.818 103.524 220.898 106.289 220.977 109.055C221.025 110.352 221.025 110.352 221.074 111.675C221.127 113.783 221.073 115.893 221 118C220.34 118.66 219.68 119.32 219 120C219 105.81 219 91.62 219 77Z" fill="#2F213E"/>
<path d="M95 215C101.6 215 108.2 215 115 215C115 215.33 115 215.66 115 216C113.32 216.203 113.32 216.203 111.605 216.41C110.133 216.626 108.66 216.843 107.188 217.062C106.45 217.147 105.712 217.231 104.951 217.318C102.757 217.666 100.997 218.018 99 219C97.3743 221.317 96.8088 223.235 96 226C96.5569 225.794 97.1137 225.588 97.6875 225.375C100.66 224.893 102.32 225.734 105 227C105 227.33 105 227.66 105 228C101.7 228 98.4 228 95 228C95 223.71 95 219.42 95 215Z" fill="#905114"/>
<path d="M50.2249 240.978C51.1832 241.025 52.1415 241.073 53.1289 241.121C54.1634 241.169 55.1979 241.218 56.2637 241.268C57.3523 241.324 58.4409 241.38 59.5625 241.438C60.655 241.49 61.7475 241.542 62.873 241.596C65.5823 241.726 68.2912 241.861 71 242C71 242.33 71 242.66 71 243C65.06 243 59.12 243 53 243C53.33 244.32 53.66 245.64 54 247C54.0379 248.666 54.0463 250.334 54 252C52.02 252.33 50.04 252.66 48 253C47.806 251.188 47.62 249.376 47.4375 247.562C47.3331 246.553 47.2287 245.544 47.1211 244.504C47.0811 243.678 47.0412 242.851 47 242C48 241 48 241 50.2249 240.978Z" fill="#AB6626"/>
<path d="M216 195C216.33 195 216.66 195 217 195C217 200.94 217 206.88 217 213C221.62 213 226.24 213 231 213C231 213.33 231 213.66 231 214C226.38 214 221.76 214 217 214C217 222.91 217 231.82 217 241C216.67 241 216.34 241 216 241C216 232.09 216 223.18 216 214C211.05 214 206.1 214 201 214C201 213.67 201 213.34 201 213C205.95 213 210.9 213 216 213C216 207.06 216 201.12 216 195Z" fill="#735E5D"/>
<path d="M190 45C193.3 45 196.6 45 200 45C200 54.9 200 64.8 200 75C199.34 75 198.68 75 198 75C198 65.76 198 56.52 198 47C195.69 47 193.38 47 191 47C190.67 46.34 190.34 45.68 190 45Z" fill="#B77B4A"/>
<path d="M34 243C36.97 243.33 39.94 243.66 43 244C43 246.64 43 249.28 43 252C40.03 252 37.06 252 34 252C34 249.03 34 246.06 34 243Z" fill="#291E3B"/>
<path d="M28 46C28.99 46 29.98 46 31 46C31 55.24 31 64.48 31 74C27.7 74 24.4 74 21 74C21 73.67 21 73.34 21 73C24.96 72.505 24.96 72.505 29 72C28.67 63.42 28.34 54.84 28 46Z" fill="#24181A"/>
<path d="M156 241C164.25 241 172.5 241 181 241C180.67 241.99 180.34 242.98 180 244C172.74 244 165.48 244 158 244C157.67 246.31 157.34 248.62 157 251C156.67 251 156.34 251 156 251C156 247.7 156 244.4 156 241Z" fill="#B46F19"/>
<path d="M40 230C40.66 230 41.32 230 42 230C42 230.99 42 231.98 42 233C42.66 232.67 43.32 232.34 44 232C44 233.65 44 235.3 44 237C43.34 237 42.68 237 42 237C42 237.66 42 238.32 42 239C39.03 238.67 36.06 238.34 33 238C33.33 235.69 33.66 233.38 34 231C35.2066 231.031 35.2066 231.031 36.4375 231.062C38.9335 231.296 38.9335 231.296 40 230Z" fill="#B26A28"/>
<path d="M184 36C184 37.65 184 39.3 184 41C179.207 42.3915 174.849 41.6866 170 41C172.29 37.4272 173.359 36.1574 177.562 35.125C181 35 181 35 184 36Z" fill="#C07229"/>
<path d="M18 217C18.66 217 19.32 217 20 217C20.1966 219.208 20.3819 221.416 20.5625 223.625C20.6669 224.855 20.7713 226.085 20.8789 227.352C20.9919 230.756 20.6905 233.676 20 237C22.97 237 25.94 237 29 237C29 237.66 29 238.32 29 239C25.37 239 21.74 239 18 239C18 231.74 18 224.48 18 217Z" fill="#2D2341"/>
<path d="M187 47C187.66 47 188.32 47 189 47C189.33 55.58 189.66 64.16 190 73C190.66 73 191.32 73 192 73C192 73.66 192 74.32 192 75C190.35 75 188.7 75 187 75C187 65.76 187 56.52 187 47Z" fill="#AB6A17"/>
<path d="M32 30C36.29 30 40.58 30 45 30C45 30.33 45 30.66 45 31C41.04 31 37.08 31 33 31C33 34.3 33 37.6 33 41C36.96 41 40.92 41 45 41C45 41.99 45 42.98 45 44C40.71 44 36.42 44 32 44C32 39.38 32 34.76 32 30Z" fill="#0F0618"/>
<path d="M211 49C211.66 49.33 212.32 49.66 213 50C213 56.27 213 62.54 213 69C212.01 69 211.02 69 210 69C208.674 63.0333 208.912 57.0742 209 51C209.66 51 210.32 51 211 51C211 50.34 211 49.68 211 49Z" fill="#180E31"/>
<path d="M38 31C40.31 31 42.62 31 45 31C45 34.3 45 37.6 45 41C37.5714 42.2857 37.5714 42.2857 34 41C34 40.34 34 39.68 34 39C37.3 39 40.6 39 44 39C41.9673 36.8366 41.9673 36.8366 39 35C39.33 34.34 39.66 33.68 40 33C39.34 33 38.68 33 38 33C38 32.34 38 31.68 38 31Z" fill="#291D2B"/>
<path d="M97 230C111.19 230 125.38 230 140 230C140 230.33 140 230.66 140 231C137.063 231.362 134.126 231.715 131.188 232.062C130.354 232.166 129.521 232.27 128.662 232.377C127.86 232.47 127.057 232.564 126.23 232.66C125.492 232.749 124.754 232.838 123.993 232.93C122 233 122 233 119 232C117.301 231.852 115.598 231.753 113.895 231.684C112.42 231.621 112.42 231.621 110.916 231.557C109.892 231.517 108.868 231.478 107.812 231.438C106.777 231.394 105.741 231.351 104.674 231.307C102.116 231.201 99.5581 231.098 97 231C97 230.67 97 230.34 97 230Z" fill="#F5BD48"/>
<path d="M93 214C93.33 214 93.66 214 94 214C94 218.95 94 223.9 94 229C91.501 226.501 90.1949 225.186 89 222C89.33 221.01 89.66 220.02 90 219C89.34 218.67 88.68 218.34 88 218C88.33 217.34 88.66 216.68 89 216C87.02 216.33 85.04 216.66 83 217C83 216.34 83 215.68 83 215C83.6381 215.012 84.2762 215.023 84.9336 215.035C85.7599 215.044 86.5862 215.053 87.4375 215.062C88.6731 215.08 88.6731 215.08 89.9336 215.098C91.9916 215.233 91.9916 215.233 93 214Z" fill="#DCA938"/>
<path d="M17 219C17.33 219 17.66 219 18 219C18.1942 221.958 18.3807 224.916 18.5625 227.875C18.6186 228.717 18.6746 229.559 18.7324 230.426C18.7808 231.231 18.8291 232.037 18.8789 232.867C18.9496 233.983 18.9496 233.983 19.0217 235.121C19 237 19 237 18 239C21.3 239 24.6 239 28 239C28 239.33 28 239.66 28 240C24.04 240.33 20.08 240.66 16 241C15.9731 237.896 15.9532 234.792 15.9375 231.688C15.9291 230.806 15.9207 229.925 15.9121 229.018C15.9089 228.17 15.9057 227.322 15.9023 226.449C15.8971 225.669 15.8919 224.889 15.8865 224.085C16 222 16 222 17 219Z" fill="#1B1429"/>
<path d="M156 17C156.66 17 157.32 17 158 17C158.33 20.3 158.66 23.6 159 27C171.87 27.495 171.87 27.495 185 28C185 28.33 185 28.66 185 29C175.43 29 165.86 29 156 29C156 25.04 156 21.08 156 17Z" fill="#37191C"/>
<path d="M71 247C72.32 247.66 73.64 248.32 75 249C75 249.66 75 250.32 75 251C75.66 251 76.32 251 77 251C77.33 252.32 77.66 253.64 78 255C77.01 254.67 76.02 254.34 75 254C73.5934 253.855 72.1819 253.754 70.7695 253.684C69.9671 253.642 69.1646 253.6 68.3379 253.557C67.5045 253.517 66.6711 253.478 65.8125 253.438C64.9675 253.394 64.1225 253.351 63.252 253.307C61.1682 253.201 59.0841 253.1 57 253C59 251 59 251 62.125 250.875C63.0738 250.916 64.0225 250.957 65 251C65.33 250.34 65.66 249.68 66 249C66.66 249 67.32 249 68 249C68 249.66 68 250.32 68 251C68.66 251 69.32 251 70 251C70.33 249.68 70.66 248.36 71 247Z" fill="#BF7637"/>
<path d="M155 241C155.33 241 155.66 241 156 241C156.33 241.99 156.66 242.98 157 244C157.577 243.814 158.155 243.629 158.75 243.438C161.207 242.96 162.644 243.243 165 244C164.361 244.412 163.721 244.825 163.062 245.25C160.847 246.774 160.847 246.774 160.562 248.938C160 251 160 251 155 255C155 250.38 155 245.76 155 241Z" fill="#BC782B"/>
<path d="M112 256C124.21 256 136.42 256 149 256C149 256.33 149 256.66 149 257C147.211 257.091 147.211 257.091 145.387 257.184C143.82 257.268 142.254 257.353 140.688 257.438C139.902 257.477 139.116 257.516 138.307 257.557C137.549 257.599 136.792 257.64 136.012 257.684C135.315 257.72 134.619 257.757 133.901 257.795C131.778 257.956 131.778 257.956 129 259C128.34 258.67 127.68 258.34 127 258C124.454 257.768 121.926 257.581 119.375 257.438C118.669 257.394 117.962 257.351 117.234 257.307C115.49 257.201 113.745 257.1 112 257C112 256.67 112 256.34 112 256Z" fill="#BE7420"/>
<path d="M164 264C167.188 263.672 167.188 263.672 171 263.75C172.258 263.765 173.516 263.781 174.812 263.797C178 264 178 264 180 265C180 265.66 180 266.32 180 267C174.06 267 168.12 267 162 267C162.66 266.01 163.32 265.02 164 264Z" fill="#31274F"/>
<path d="M19 47C19.33 47 19.66 47 20 47C20.33 54.26 20.66 61.52 21 69C24.8374 68.0407 25.5966 67.7639 28 65C28 66.98 28 68.96 28 71C25.03 71 22.06 71 19 71C19 63.08 19 55.16 19 47Z" fill="#36284C"/>
<path d="M32 241C36.29 241 40.58 241 45 241C45 245.29 45 249.58 45 254C43 252 43 252 42.8047 250.055C42.8698 248.036 42.9349 246.018 43 244C42.1131 243.856 41.2262 243.711 40.3125 243.562C37.5288 243.09 34.7652 242.569 32 242C32 241.67 32 241.34 32 241Z" fill="#2F1314"/>
<path d="M43 217C43.66 217 44.32 217 45 217C45 224.59 45 232.18 45 240C44.34 240 43.68 240 43 240C42.8041 236.355 42.6197 232.709 42.4375 229.062C42.3814 228.022 42.3254 226.981 42.2676 225.908C42.2192 224.919 42.1709 223.929 42.1211 222.91C42.074 221.994 42.0268 221.077 41.9783 220.133C42 218 42 218 43 217Z" fill="#C07B22"/>
<path d="M197 31C197.33 31 197.66 31 198 31C198 34.63 198 38.26 198 42C195.36 42 192.72 42 190 42C189.67 40.35 189.34 38.7 189 37C189.866 37.2784 189.866 37.2784 190.75 37.5625C193.207 38.0402 194.644 37.7573 197 37C197 35.02 197 33.04 197 31Z" fill="#281B3B"/>
<path d="M141 15C145.62 15 150.24 15 155 15C155 19.62 155 24.24 155 29C154.67 29 154.34 29 154 29C153.939 28.3735 153.879 27.747 153.816 27.1016C153.691 25.8757 153.691 25.8757 153.562 24.625C153.481 23.8129 153.4 23.0008 153.316 22.1641C153.109 19.9573 153.109 19.9573 152 18C149.414 17.5317 149.414 17.5317 146.438 17.375C144.92 17.2629 144.92 17.2629 143.371 17.1484C142.197 17.075 142.197 17.075 141 17C141 16.34 141 15.68 141 15Z" fill="#DBB370"/>
<path d="M187 201C191.62 201 196.24 201 201 201C197.698 204.302 193.55 203.65 189 204C189 207.3 189 210.6 189 214C188.34 214 187.68 214 187 214C187 209.71 187 205.42 187 201Z" fill="#BD761B"/>
<path d="M153 20C153.33 20 153.66 20 154 20C155.192 28.3433 155.093 36.5932 155 45C154.34 45 153.68 45 153 45C152.063 41.8825 151.943 39.2585 152.121 36.0156C152.169 35.0811 152.218 34.1465 152.268 33.1836C152.324 32.2155 152.38 31.2474 152.437 30.25C152.49 29.2664 152.542 28.2829 152.596 27.2695C152.725 24.846 152.86 22.4229 153 20Z" fill="#F6BE4C"/>
<path d="M158 30C167.24 30 176.48 30 186 30C186 34.29 186 38.58 186 43C185.67 43 185.34 43 185 43C184.939 42.2897 184.879 41.5795 184.816 40.8477C184.691 39.469 184.691 39.469 184.562 38.0625C184.481 37.146 184.4 36.2295 184.316 35.2852C184.24 33.0384 184.24 33.0384 183 32C181.148 31.8421 179.291 31.7489 177.434 31.6836C175.747 31.6208 175.747 31.6208 174.025 31.5566C172.841 31.5173 171.657 31.478 170.438 31.4375C169.25 31.3943 168.062 31.3511 166.838 31.3066C163.892 31.2002 160.946 31.0982 158 31C158 30.67 158 30.34 158 30Z" fill="#B67D53"/>
<path d="M153 274C153 277.3 153 280.6 153 284C152.34 284 151.68 284 151 284C151 281.03 151 278.06 151 275C149.868 275.095 148.736 275.191 147.57 275.289C146.089 275.402 144.607 275.513 143.125 275.625C142.379 275.689 141.632 275.754 140.863 275.82C138.913 275.961 136.955 275.988 135 276C134.34 275.34 133.68 274.68 133 274C135.583 273.805 138.166 273.618 140.75 273.437C141.48 273.381 142.209 273.325 142.961 273.268C146.653 273.016 149.37 273.092 153 274Z" fill="#312342"/>
<path d="M84.3516 29.9024C85.6277 29.9072 85.6277 29.9072 86.9297 29.9121C87.8191 29.9205 88.7086 29.9289 89.625 29.9375C90.5222 29.942 91.4194 29.9465 92.3438 29.9512C94.5626 29.963 96.7813 29.9795 99 30C99 30.33 99 30.66 99 31C92.4 31.66 85.8 32.32 79 33C79 36.3 79 39.6 79 43C78.67 43 78.34 43 78 43C78 39.04 78 35.08 78 31C80.3485 29.8258 81.7377 29.8849 84.3516 29.9024Z" fill="#DEBB4F"/>
<path d="M46 256C49.3 256.33 52.6 256.66 56 257C56 257.33 56 257.66 56 258C53.36 258 50.72 258 48 258C48.1856 258.495 48.3713 258.99 48.5625 259.5C49.2014 263.151 48.5491 266.34 48 270C47.34 270 46.68 270 46 270C46 265.38 46 260.76 46 256Z" fill="#1D1426"/>
<path d="M213 189C213.33 189 213.66 189 214 189C214 196.26 214 203.52 214 211C210.785 212.607 207.564 212.057 204 212C206.647 210.539 207.894 210 211 210C211 209.34 211 208.68 211 208C211.66 208 212.32 208 213 208C213 201.73 213 195.46 213 189Z" fill="#B56F37"/>
<path d="M219 77C222.3 77 225.6 77 229 77C229 82.94 229 88.88 229 95C228.67 95 228.34 95 228 95C227.67 89.72 227.34 84.44 227 79C224.876 78.7739 224.876 78.7739 223.375 80.5C222.921 80.995 222.468 81.49 222 82C222 80.68 222 79.36 222 78C221.34 78 220.68 78 220 78C219.67 78.99 219.34 79.98 219 81C219 79.68 219 78.36 219 77Z" fill="#31264A"/>
<path d="M15 75C15 79.62 15 84.24 15 89C14.34 89 13.68 89 13 89C13 85.04 13 81.08 13 77C9.7 77 6.4 77 3 77C3 76.67 3 76.34 3 76C4.62487 75.8321 6.2499 75.6657 7.875 75.5C8.77992 75.4072 9.68484 75.3144 10.6172 75.2188C13 75 13 75 15 75Z" fill="#201627"/>
<path d="M36 54C36.33 54 36.66 54 37 54C37.7103 59.5297 38.3027 64.4998 37 70C36.01 70 35.02 70 34 70C34 67.03 34 64.06 34 61C34.66 61 35.32 61 36 61C36 58.69 36 56.38 36 54Z" fill="#FAF19A"/>
<path d="M154 6C154.33 6 154.66 6 155 6C155 8.64 155 11.28 155 14C146.75 13.67 138.5 13.34 130 13C130 12.67 130 12.34 130 12C137.59 12 145.18 12 153 12C153.33 10.02 153.66 8.04 154 6Z" fill="#291B2D"/>
<path d="M31 188C31.33 188 31.66 188 32 188C32.33 194.27 32.66 200.54 33 207C33.33 207 33.66 207 34 207C34 208.98 34 210.96 34 213C32.68 213.33 31.36 213.66 30 214C30.33 205.42 30.66 196.84 31 188Z" fill="#E2B84D"/>
<path d="M204 76C207.3 76 210.6 76 214 76C213.67 79.3 213.34 82.6 213 86C212.34 86 211.68 86 211 86C210.34 83.36 209.68 80.72 209 78C207.35 77.67 205.7 77.34 204 77C204 76.67 204 76.34 204 76Z" fill="#C57A38"/>
<path d="M141 74C145.62 74 150.24 74 155 74C154.67 74.99 154.34 75.98 154 77C149.71 77 145.42 77 141 77C141 76.01 141 75.02 141 74Z" fill="#935206"/>
<path d="M157 258C157.33 258 157.66 258 158 258C158 260.97 158 263.94 158 267C162.29 267.66 166.58 268.32 171 269C171 269.33 171 269.66 171 270C166.38 270 161.76 270 157 270C157 266.04 157 262.08 157 258Z" fill="#281A32"/>
<path d="M197 243C197.33 243 197.66 243 198 243C198 246.63 198 250.26 198 254C198.66 254.33 199.32 254.66 200 255C195.71 255 191.42 255 187 255C187 254.67 187 254.34 187 254C187.743 253.856 188.485 253.711 189.25 253.562C191.513 253.1 193.759 252.56 196 252C196.33 249.03 196.66 246.06 197 243Z" fill="#2E263F"/>
<path d="M29 208C29.33 209.98 29.66 211.96 30 214C25.38 214 20.76 214 16 214C16 213.67 16 213.34 16 213C19.3 212.67 22.6 212.34 26 212C25.34 211.01 24.68 210.02 24 209C26 208 26 208 29 208Z" fill="#ECDDA8"/>
<path d="M187 45C188.459 45.1411 189.917 45.288 191.375 45.4375C192.593 45.5593 192.593 45.5593 193.836 45.6836C196 46 196 46 198 47C197.67 48.32 197.34 49.64 197 51C196.01 50.67 195.02 50.34 194 50C194 49.34 194 48.68 194 48C193.01 48 192.02 48 191 48C190.67 48.99 190.34 49.98 190 51C189.67 49.68 189.34 48.36 189 47C188.34 47 187.68 47 187 47C187 46.34 187 45.68 187 45Z" fill="#AD6D2D"/>
<path d="M28 46C28.99 46 29.98 46 31 46C31 50.29 31 54.58 31 59C30.34 59 29.68 59 29 59C28.67 54.71 28.34 50.42 28 46Z" fill="#1C1018"/>
<path d="M76 36C76.33 36 76.66 36 77 36C77 38.31 77 40.62 77 43C74.03 43 71.06 43 68 43C68 42.01 68 41.02 68 40C71.465 39.505 71.465 39.505 75 39C75.33 38.01 75.66 37.02 76 36Z" fill="#FEEE92"/>
<path d="M46 32C47.32 32 48.64 32 50 32C50.1789 35.9364 50.158 38.6432 48 42C47.34 42.66 46.68 43.32 46 44C46 40.04 46 36.08 46 32Z" fill="#F4E59E"/>
<path d="M158 18C160.64 18 163.28 18 166 18C165.01 18.66 164.02 19.32 163 20C164.65 20.33 166.3 20.66 168 21C164.356 23.4295 162.288 23.1618 158 23C158 21.35 158 19.7 158 18Z" fill="#2D1E43"/>
<path d="M83 19C83.99 19 84.98 19 86 19C86 22.3 86 25.6 86 29C84.68 28.67 83.36 28.34 82 28C81.67 26.02 81.34 24.04 81 22C81.66 22 82.32 22 83 22C83 21.01 83 20.02 83 19Z" fill="#FDF2A4"/>
<path d="M141 17C144.63 17 148.26 17 152 17C152.33 18.32 152.66 19.64 153 21C152.67 20.34 152.34 19.68 152 19C150.105 18.5348 150.105 18.5348 147.938 18.375C146.638 18.2512 145.339 18.1275 144 18C144 18.66 144 19.32 144 20C143.34 20 142.68 20 142 20C142 21.65 142 23.3 142 25C141.67 25 141.34 25 141 25C141 22.36 141 19.72 141 17Z" fill="#DEB04C"/>
<path d="M34 208C34.6187 208.33 35.2375 208.66 35.875 209C37.9102 210.142 37.9102 210.142 40 210C40 210.66 40 211.32 40 212C41.65 211.67 43.3 211.34 45 211C45 211.66 45 212.32 45 213C41.37 213 37.74 213 34 213C34 211.35 34 209.7 34 208Z" fill="#F5BE45"/>
<path d="M11.0001 157C11.3301 157 11.6601 157 12.0001 157C13.1287 162.361 13.0969 167.553 13.0001 173C12.3401 173 11.6801 173 11.0001 173C9.69739 167.5 10.2897 162.53 11.0001 157Z" fill="#2F2444"/>
<path d="M188 63C188.33 63 188.66 63 189 63C189.33 66.3 189.66 69.6 190 73C190.66 73 191.32 73 192 73C192 73.66 192 74.32 192 75C190.35 75 188.7 75 187 75C186.973 73.1876 186.954 71.375 186.938 69.5625C186.926 68.5532 186.914 67.5438 186.902 66.5039C187 64 187 64 188 63Z" fill="#B67114"/>
<path d="M147 275C148.32 275 149.64 275 151 275C151 277.64 151 280.28 151 283C150.34 283 149.68 283 149 283C148.67 281.68 148.34 280.36 148 279C147.01 279 146.02 279 145 279C145.66 277.68 146.32 276.36 147 275Z" fill="#23173D"/>
<path d="M16 234C16.99 234.33 17.98 234.66 19 235C18.67 236.32 18.34 237.64 18 239C21.3 239 24.6 239 28 239C28 239.33 28 239.66 28 240C22.06 240.495 22.06 240.495 16 241C16 238.69 16 236.38 16 234Z" fill="#130C1F"/>
<path d="M81 274C81 276.97 81 279.94 81 283C80.01 283 79.02 283 78 283C78 280.36 78 277.72 78 275C80 274 80 274 81 274Z" fill="#1C172D"/>
<path d="M58 264C57.67 264.99 57.34 265.98 57 267C54.03 267 51.06 267 48 267C48 266.34 48 265.68 48 265C51.4351 264.375 54.4906 264 58 264Z" fill="#342C51"/>
<path d="M33 77C35.31 77 37.62 77 40 77C40 77.66 40 78.32 40 79C39.4019 79.0825 38.8037 79.165 38.1875 79.25C35.4034 80.2046 34.5669 81.5713 33 84C33 81.69 33 79.38 33 77Z" fill="#EDBF42"/>
<path d="M34 243C34.99 243.33 35.98 243.66 37 244C36.67 246.64 36.34 249.28 36 252C35.34 252 34.68 252 34 252C34 249.03 34 246.06 34 243Z" fill="#201633"/>
<path d="M12 201C12.33 201 12.66 201 13 201C13 204.63 13 208.26 13 212C12.01 212 11.02 212 10 212C10.165 211.464 10.33 210.928 10.5 210.375C11.1094 207.885 11.1094 207.885 11 204.812C11 202 11 202 12 201Z" fill="#322843"/>
<path d="M73 261C73.33 262.32 73.66 263.64 74 265C74.66 265 75.32 265 76 265C76 265.66 76 266.32 76 267C74.02 267 72.04 267 70 267C70 266.01 70 265.02 70 264C70.66 264 71.32 264 72 264C72.33 263.01 72.66 262.02 73 261Z" fill="#3D3053"/>
<path d="M189 203C191 203.25 191 203.25 193 204C193.33 204.99 193.66 205.98 194 207C193.01 207.33 192.02 207.66 191 208C190.34 207.67 189.68 207.34 189 207C188.67 207.66 188.34 208.32 188 209C187.957 207.334 187.959 205.666 188 204C188.33 203.67 188.66 203.34 189 203Z" fill="#C37828"/>
<path d="M214 71C214 71.66 214 72.32 214 73C210.7 73 207.4 73 204 73C204 72.34 204 71.68 204 71C210.625 69.875 210.625 69.875 214 71Z" fill="#29142C"/>
<path d="M40 41C41.65 41 43.3 41 45 41C45 41.99 45 42.98 45 44C41.37 44 37.74 44 34 44C34 43.67 34 43.34 34 43C35.98 43 37.96 43 40 43C40 42.34 40 41.68 40 41Z" fill="#1E110A"/>
<path d="M70 267C72.875 266.812 72.875 266.812 76 267C76.66 267.99 77.32 268.98 78 270C75.36 270 72.72 270 70 270C70 269.01 70 268.02 70 267Z" fill="#2A1E31"/>
<path d="M181 32C182.98 32.495 182.98 32.495 185 33C185 35.64 185 38.28 185 41C184.67 41 184.34 41 184 41C183.67 39.35 183.34 37.7 183 36C182.01 36 181.02 36 180 36C180.33 34.68 180.66 33.36 181 32Z" fill="#C37D3A"/>
<path d="M78 243C79.32 243.33 80.64 243.66 82 244C82 244.99 82 245.98 82 247C81.01 247.495 81.01 247.495 80 248C79.34 249.32 78.68 250.64 78 252C78 249.03 78 246.06 78 243Z" fill="#EFB642"/>
<path d="M190 32C191.65 32 193.3 32 195 32C195 32.99 195 33.98 195 35C194.01 35 193.02 35 192 35C192 35.66 192 36.32 192 37C191.34 37 190.68 37 190 37C190 35.35 190 33.7 190 32Z" fill="#291B40"/>
<path d="M35 63C35.66 63 36.32 63 37 63C37 65.31 37 67.62 37 70C36.01 70 35.02 70 34 70C34.33 67.69 34.66 65.38 35 63Z" fill="#FCF5A5"/>
<path d="M38 47C39.32 47.66 40.64 48.32 42 49C40.1875 50.0625 40.1875 50.0625 38 51C37.01 50.67 36.02 50.34 35 50C34.67 50.99 34.34 51.98 34 53C34 51.35 34 49.7 34 48C35.32 48.33 36.64 48.66 38 49C38 48.34 38 47.68 38 47Z" fill="#F3E388"/>
<path d="M34 39C36.64 39 39.28 39 42 39C42.33 39.66 42.66 40.32 43 41C39.6218 41.8445 37.3253 42.1084 34 41C34 40.34 34 39.68 34 39Z" fill="#2B203A"/>
<path d="M191 70C193 71 193 71 193 71L191 70ZM189 71C190.32 71.33 191.64 71.66 193 72C193 72.66 193 73.32 193 74C194.32 73.67 195.64 73.34 197 73C197.33 73.66 197.66 74.32 198 75C192.375 75.25 192.375 75.25 189 73C189 72.34 189 71.68 189 71Z" fill="#C17A22"/>
</svg>
