<svg width="455" height="209" viewBox="0 0 455 209" fill="none" xmlns="http://www.w3.org/2000/svg">
<path d="M195 12C202.26 12 209.52 12 217 12C217 15.3 217 18.6 217 22C208.75 22 200.5 22 192 22C192 25.3 192 28.6 192 32C190.35 32 188.7 32 187 32C187 35.96 187 39.92 187 44C186.34 44 185.68 44 185 44C185 42.02 185 40.04 185 38C183.35 38 181.7 38 180 38C180 41.63 180 45.26 180 49C185.94 49 191.88 49 198 49C198 51.64 198 54.28 198 57C202.29 57 206.58 57 211 57C211 59.31 211 61.62 211 64C215.29 64 219.58 64 224 64C224 66.97 224 69.94 224 73C224.71 72.9884 225.421 72.9768 226.152 72.9648C227.071 72.9558 227.991 72.9468 228.938 72.9375C229.854 72.9259 230.771 72.9143 231.715 72.9023C234 73 234 73 235 74C235.072 75.5193 235.084 77.0417 235.062 78.5625C235.053 79.3888 235.044 80.2151 235.035 81.0664C235.024 81.7045 235.012 82.3426 235 83C235.928 82.7731 236.856 82.5463 237.812 82.3125C241 82 241 82 242.681 83.2024C244.338 85.4603 244.349 86.6705 244.293 89.4492C244.283 90.2968 244.274 91.1443 244.264 92.0176C244.239 92.8987 244.213 93.7797 244.188 94.6875C244.174 95.5802 244.16 96.4729 244.146 97.3926C244.111 99.5953 244.057 101.798 244 104C241.03 104 238.06 104 235 104C234.67 99.05 234.34 94.1 234 89C232.68 89 231.36 89 230 89C230 88.34 230 87.68 230 87C228.35 87 226.7 87 225 87C225 84.69 225 82.38 225 80C220.05 80 215.1 80 210 80C210 76.7 210 73.4 210 70C202.41 70 194.82 70 187 70C187 67.36 187 64.72 187 62C184.03 62 181.06 62 178 62C178 60.35 178 58.7 178 57C174.04 57 170.08 57 166 57C166 58.32 166 59.64 166 61C159.73 61 153.46 61 147 61C147 63.97 147 66.94 147 70C144.36 70 141.72 70 139 70C139 72.31 139 74.62 139 77C137.02 77 135.04 77 133 77C133 78.65 133 80.3 133 82C131.68 82 130.36 82 129 82C129 84.64 129 87.28 129 90C127.68 90 126.36 90 125 90C125 91.65 125 93.3 125 95C121.04 95 117.08 95 113 95C113 93.68 113 92.36 113 91C111.958 91.0079 111.958 91.0079 110.896 91.0159C107.68 91.0369 104.465 91.0498 101.25 91.0625C100.158 91.0709 99.0663 91.0793 97.9414 91.0879C90.5753 91.1097 83.3292 90.7351 76 90C76 92.64 76 95.28 76 98C72.37 98 68.74 98 65 98C65 101.3 65 104.6 65 108C62.69 108 60.38 108 58 108C58 109.32 58 110.64 58 112C50.74 112 43.48 112 36 112C36 113.98 36 115.96 36 118C31.545 118.495 31.545 118.495 27 119C26.8556 120.134 26.7113 121.269 26.5625 122.438C26 126 26 126 25 127C22.667 127.041 20.3329 127.042 18 127C18 130.63 18 134.26 18 138C20.64 138 23.28 138 26 138C26.33 140.31 26.66 142.62 27 145C30.3 145 33.6 145 37 145C37 148.3 37 151.6 37 155C43.6 155 50.2 155 57 155C57 158.96 57 162.92 57 167C71.52 167 86.04 167 101 167C101 163.37 101 159.74 101 156C104.63 156 108.26 156 112 156C112 152.37 112 148.74 112 145C115.3 145 118.6 145 122 145C122 141.7 122 138.4 122 135C124.64 135 127.28 135 130 135C130 132.36 130 129.72 130 127C132.97 127 135.94 127 139 127C139 130.3 139 133.6 139 137C140.98 137 142.96 137 145 137C145 139.64 145 142.28 145 145C147.64 145 150.28 145 153 145C153 147.31 153 149.62 153 152C154.98 152 156.96 152 159 152C159 153.98 159 155.96 159 158C161.97 158 164.94 158 168 158C168.33 160.64 168.66 163.28 169 166C191.77 166.495 191.77 166.495 215 167C215 164.36 215 161.72 215 159C216 158 216 158 218.562 157.938C219.367 157.958 220.171 157.979 221 158C221 157.34 221 156.68 221 156C222.32 156 223.64 156 225 156C225 153.36 225 150.72 225 148C228.3 147.67 231.6 147.34 235 147C235 144.36 235 141.72 235 139C237.64 139 240.28 139 243 139C243 135.37 243 131.74 243 128C247.455 127.505 247.455 127.505 252 127C251.67 129.97 251.34 132.94 251 136C255.62 136 260.24 136 265 136C265 137.65 265 139.3 265 141C266.65 141 268.3 141 270 141C270.33 142.98 270.66 144.96 271 147C272.98 147.33 274.96 147.66 277 148C277 150.97 277 153.94 277 157C280.3 157 283.6 157 287 157C287 160.3 287 163.6 287 167C296.57 167 306.14 167 316 167C316 164.36 316 161.72 316 159C318.31 159 320.62 159 323 159C322.67 158.01 322.34 157.02 322 156C323.65 156 325.3 156 327 156C327 149.4 327 142.8 327 136C330.96 136 334.92 136 339 136C339 138.64 339 141.28 339 144C342.63 144 346.26 144 350 144C350 145.98 350 147.96 350 150C352.31 150 354.62 150 357 150C357 152.31 357 154.62 357 157C359.64 157 362.28 157 365 157C365 159.64 365 162.28 365 165C366.32 165 367.64 165 369 165C369 162.36 369 159.72 369 157C373.29 157 377.58 157 382 157C382 153.7 382 150.4 382 147C383.98 147 385.96 147 388 147C388 146.01 388 145.02 388 144C388.99 144 389.98 144 391 144C391 140.04 391 136.08 391 132C386.38 132 381.76 132 377 132C377 129.69 377 127.38 377 125C380.63 125 384.26 125 388 125C388 122.03 388 119.06 388 116C389.98 116 391.96 116 394 116C394 112.37 394 108.74 394 105C391.69 104.67 389.38 104.34 387 104C386.67 102.02 386.34 100.04 386 98C384.68 98 383.36 98 382 98C382 96.35 382 94.7 382 93C376.72 93 371.44 93 366 93C366 86 366 86 367 85C368.696 84.9007 370.395 84.8692 372.094 84.8672C373.124 84.8659 374.154 84.8646 375.215 84.8633C376.841 84.8691 376.841 84.8691 378.5 84.875C379.584 84.8711 380.668 84.8673 381.785 84.8633C382.815 84.8646 383.845 84.8659 384.906 84.8672C386.334 84.8689 386.334 84.8689 387.791 84.8706C390 85 390 85 391 86C391.072 88.0196 391.084 90.0417 391.062 92.0625C391.053 93.1672 391.044 94.272 391.035 95.4102C391.018 96.6921 391.018 96.6921 391 98C393.64 98 396.28 98 399 98C399 101.96 399 105.92 399 110C402.63 110 406.26 110 410 110C410 117.92 410 125.84 410 134C413.63 134.33 417.26 134.66 421 135C421 136.65 421 138.3 421 140C424.3 140 427.6 140 431 140C431.66 142.64 432.32 145.28 433 148C434.65 148.33 436.3 148.66 438 149C438 151.31 438 153.62 438 156C440.64 156 443.28 156 446 156C446 159.96 446 163.92 446 168C448.97 168 451.94 168 455 168C455 175.92 455 183.84 455 192C452.03 192 449.06 192 446 192C446 194.64 446 197.28 446 200C441.38 200.33 436.76 200.66 432 201C431.67 203.64 431.34 206.28 431 209C377.54 209 324.08 209 269 209C269 206.36 269 203.72 269 201C267.236 201.008 267.236 201.008 265.436 201.016C261.088 201.034 256.74 201.045 252.392 201.055C250.508 201.06 248.623 201.067 246.738 201.075C244.035 201.088 241.332 201.093 238.629 201.098C237.781 201.103 236.933 201.108 236.059 201.113C234.039 201.113 232.019 201.062 230 201C229 200 229 200 228.902 198.152C228.935 196.102 228.967 194.051 229 192C226.36 192 223.72 192 221 192C221 194.97 221 197.94 221 201C217.7 201 214.4 201 211 201C211 203.64 211 206.28 211 209C188.23 209 165.46 209 142 209C142 206.36 142 203.72 142 201C138.04 201 134.08 201 130 201C130 198.03 130 195.06 130 192C124.72 192 119.44 192 114 192C114 194.64 114 197.28 114 200C87.6 200 61.2 200 34 200C34 196.7 34 193.4 34 190C31.69 190 29.38 190 27 190C27 188.68 27 187.36 27 186C24.03 186 21.06 186 18 186C18 183.36 18 180.72 18 178C17.34 178.33 16.68 178.66 16 179C13.667 179.04 11.3329 179.043 9 179C9 175.7 9 172.4 9 169C6.03 169 3.06 169 0 169C0 161.41 0 153.82 0 146C2.97 146 5.94 146 9 146C9 138.74 9 131.48 9 124C11.64 124 14.28 124 17 124C16.9794 123.196 16.9588 122.391 16.9375 121.562C17 119 17 119 18 118C20.6706 117.859 23.3243 117.958 26 118C26 115.36 26 112.72 26 110C28.97 110 31.94 110 35 110C35 106.37 35 102.74 35 99C44.57 99 54.14 99 64 99C64 95.37 64 91.74 64 88C65 87 65 87 67.0664 86.9023C67.8901 86.9139 68.7138 86.9255 69.5625 86.9375C70.8019 86.951 70.8019 86.951 72.0664 86.9648C73.0235 86.9822 73.0235 86.9822 74 87C73.67 86.34 73.34 85.68 73 85C73 83.02 73 81.04 73 79C86.53 79 100.06 79 114 79C114 82.3 114 85.6 114 89C115.32 89 116.64 89 118 89C118.33 83.72 118.66 78.44 119 73C123.95 73 128.9 73 134 73C134 68.71 134 64.42 134 60C136.64 60 139.28 60 142 60C142 58.35 142 56.7 142 55C147.129 52.8957 151.561 52.7824 157 53C156.67 51.35 156.34 49.7 156 48C159.3 48 162.6 48 166 48C166 45.36 166 42.72 166 40C167.65 39.67 169.3 39.34 171 39C171.33 36.69 171.66 34.38 172 32C174.31 32 176.62 32 179 32C179 29.69 179 27.38 179 25C181.64 24.67 184.28 24.34 187 24C187.33 20.7 187.66 17.4 188 14C190.31 14 192.62 14 195 14C195 13.34 195 12.68 195 12Z" fill="#C2E1EC"/>
<path d="M302 32C304.31 32 306.62 32 309 32C309 34.64 309 37.28 309 40C311.31 40 313.62 40 316 40C316 45.28 316 50.56 316 56C317.98 56 319.96 56 322 56C323 57 323 57 323.114 58.9495C323.108 59.7821 323.103 60.6148 323.098 61.4727C323.094 62.3718 323.091 63.2709 323.088 64.1973C323.075 65.6156 323.075 65.6156 323.062 67.0625C323.058 68.0119 323.053 68.9613 323.049 69.9395C323.037 72.293 323.021 74.6465 323 77C323.551 76.9697 324.102 76.9394 324.67 76.9082C338.792 76.1513 352.859 75.8657 367 76C367 78.31 367 80.62 367 83C355.45 83 343.9 83 332 83C332 84.98 332 86.96 332 89C326.06 89.495 326.06 89.495 320 90C319.67 91.65 319.34 93.3 319 95C317.35 94.67 315.7 94.34 314 94C314.021 94.9488 314.041 95.8975 314.062 96.875C314 100 314 100 313 102C310.614 101.424 308.333 100.778 306 100C306.021 101.134 306.041 102.269 306.062 103.438C306 107 306 107 305 108C303.219 108.087 301.435 108.107 299.652 108.098C298.573 108.094 297.493 108.091 296.381 108.088C295.245 108.08 294.108 108.071 292.938 108.062C291.797 108.058 290.657 108.053 289.482 108.049C286.655 108.037 283.827 108.021 281 108C281 104.7 281 101.4 281 98C285.62 98 290.24 98 295 98C295 94.37 295 90.74 295 87C297.64 87 300.28 87 303 87C303 83.7 303 80.4 303 77C305.64 77 308.28 77 311 77C311 65.45 311 53.9 311 42C309.35 42 307.7 42 306 42C306 41.01 306 40.02 306 39C304.68 39 303.36 39 302 39C302 36.69 302 34.38 302 32Z" fill="#C5E0EA"/>
<path d="M403 141C408.61 141 414.22 141 420 141C420 142.98 420 144.96 420 147C420.957 146.983 420.957 146.983 421.934 146.965C422.76 146.956 423.586 146.947 424.438 146.938C425.261 146.926 426.085 146.914 426.934 146.902C429 147 429 147 430 148C430.141 150.671 430.042 153.324 430 156C428.35 156 426.7 156 425 156C425 159.3 425 162.6 425 166C422.69 166 420.38 166 418 166C418 168.31 418 170.62 418 173C407.77 173 397.54 173 387 173C387 171.35 387 169.7 387 168C387.99 168 388.98 168 390 168C390 163.05 390 158.1 390 153C392.31 153 394.62 153 397 153C397 150.69 397 148.38 397 146C399.97 146.495 399.97 146.495 403 147C403 145.02 403 143.04 403 141Z" fill="#F8FCFA"/>
<path d="M217 0C233.83 0 250.66 0 268 0C268 3.3 268 6.6 268 10C251.17 10 234.34 10 217 10C217 6.7 217 3.4 217 0Z" fill="#BCDCE9"/>
<path d="M269 12C277.91 12 286.82 12 296 12C296 15.3 296 18.6 296 22C297.98 22 299.96 22 302 22C302 24.64 302 27.28 302 30C299.69 30 297.38 30 295 30C295 27.36 295 24.72 295 22C291.93 21.1447 288.97 20.7416 285.797 20.4648C284.817 20.3778 283.837 20.2908 282.828 20.2012C281.812 20.1142 280.797 20.0271 279.75 19.9375C278.719 19.8466 277.688 19.7557 276.625 19.6621C274.084 19.4386 271.542 19.218 269 19C269 16.69 269 14.38 269 12Z" fill="#C2DDE7"/>
<path d="M413 135C415.64 135 418.28 135 421 135C421 136.65 421 138.3 421 140C424.3 140 427.6 140 431 140C431.66 142.64 432.32 145.28 433 148C435.475 148.495 435.475 148.495 438 149C437.01 149.66 436.02 150.32 435 151C434.34 150.67 433.68 150.34 433 150C432.917 150.949 432.835 151.897 432.75 152.875C432.502 153.906 432.255 154.938 432 156C430.062 157.062 430.062 157.062 428 158C426.717 160.538 426.717 160.538 426 163C425.67 163 425.34 163 425 163C425 160.69 425 158.38 425 156C426.65 156 428.3 156 430 156C429.67 153.36 429.34 150.72 429 148C426.03 147.67 423.06 147.34 420 147C419 143 419 143 420 141C414.39 141 408.78 141 403 141C403 140.67 403 140.34 403 140C405.97 140 408.94 140 412 140C412.33 138.35 412.66 136.7 413 135Z" fill="#D1E4EA"/>
<path d="M302 32C304.31 32 306.62 32 309 32C309 34.64 309 37.28 309 40C310.98 40 312.96 40 315 40C315 42.64 315 45.28 315 48C314.67 48 314.34 48 314 48C313.951 48.7593 313.902 49.5185 313.852 50.3008C313.777 51.2946 313.702 52.2885 313.625 53.3125C313.555 54.2986 313.486 55.2848 313.414 56.3008C313 59 313 59 311 62C311 55.4 311 48.8 311 42C309.35 42 307.7 42 306 42C306 41.01 306 40.02 306 39C304.68 39 303.36 39 302 39C302 36.69 302 34.38 302 32Z" fill="#C1DAE2"/>
<path d="M268 0C268.33 0 268.66 0 269 0C269 3.63 269 7.26 269 11C270.65 11 272.3 11 274 11C274 11.33 274 11.66 274 12C272.35 12 270.7 12 269 12C269 14.31 269 16.62 269 19C268.67 19 268.34 19 268 19C267.505 15.535 267.505 15.535 267 12C242.745 11.505 242.745 11.505 218 11C218 14.63 218 18.26 218 22C217.67 22 217.34 22 217 22C217 18.7 217 15.4 217 12C209.74 12 202.48 12 195 12C195 11.67 195 11.34 195 11C211.115 10.0396 227.173 9.87803 243.312 9.9375C245.722 9.94253 248.132 9.94709 250.541 9.95117C256.361 9.96203 262.18 9.9792 268 10C268 6.7 268 3.4 268 0Z" fill="#DFEFF6"/>
<path d="M377 125C380.96 125 384.92 125 389 125C388.67 126.65 388.34 128.3 388 130C389.32 130.33 390.64 130.66 392 131C392 135.29 392 139.58 392 144C391.67 144 391.34 144 391 144C391 140.04 391 136.08 391 132C386.38 132 381.76 132 377 132C377 129.69 377 127.38 377 125Z" fill="#CFE4EB"/>
<path d="M180 38C181.65 38 183.3 38 185 38C185 39.98 185 41.96 185 44C185.99 44.33 186.98 44.66 188 45C187.34 45.66 186.68 46.32 186 47C190.29 47.33 194.58 47.66 199 48C199 50.64 199 53.28 199 56C199.66 56.33 200.32 56.66 201 57C200.01 57 199.02 57 198 57C198 54.36 198 51.72 198 49C192.06 49 186.12 49 180 49C180 45.37 180 41.74 180 38Z" fill="#ECF8FB"/>
<path d="M118 82C118.33 82 118.66 82 119 82C119.364 83.602 119.716 85.2067 120.062 86.8125C120.358 88.1525 120.358 88.1525 120.66 89.5195C121 92 121 92 120 95C117.69 95 115.38 95 113 95C113 93.68 113 92.36 113 91C104.75 91 96.5 91 88 91C88 90.67 88 90.34 88 90C102.85 89.505 102.85 89.505 118 89C118 86.69 118 84.38 118 82Z" fill="#D2E7ED"/>
<path d="M369.225 84.8865C370.183 84.8917 371.142 84.8969 372.129 84.9023C373.681 84.9072 373.681 84.9072 375.264 84.9121C376.352 84.9205 377.441 84.9289 378.562 84.9375C380.201 84.9443 380.201 84.9443 381.873 84.9512C384.582 84.963 387.291 84.9795 390 85C390 85.33 390 85.66 390 86C384.72 86 379.44 86 374 86C373.67 87.65 373.34 89.3 373 91C371.35 90.67 369.7 90.34 368 90C367.67 90.66 367.34 91.32 367 92C371.62 92 376.24 92 381 92C381 92.33 381 92.66 381 93C376.05 93 371.1 93 366 93C366 85.051 366 85.051 369.225 84.8865Z" fill="#CEE6EB"/>
<path d="M332 83C343.55 83 355.1 83 367 83C366.67 83.99 366.34 84.98 366 86C366 85.34 366 84.68 366 84C364.403 84.1083 364.403 84.1083 362.773 84.2188C361.307 84.3133 359.841 84.407 358.375 84.5C357.61 84.5499 356.846 84.5997 356.058 84.6511C349.923 85.0207 343.9 84.9509 337.758 84.6445C334.861 84.7203 334.861 84.7203 333.117 87.0117C332.749 87.6679 332.38 88.324 332 89C332 87.02 332 85.04 332 83ZM322.723 88.9023C324.376 88.9197 324.376 88.9197 326.063 88.9375C327.72 88.951 327.72 88.951 329.41 88.9648C330.265 88.9764 331.119 88.988 332 89C332 89.33 332 89.66 332 90C326.06 90.495 326.06 90.495 320 91C319.67 92.32 319.34 93.64 319 95C318.957 93.3339 318.959 91.6662 319 90C320 89 320 89 322.723 88.9023Z" fill="#E8F6FA"/>
<path d="M214 160C214.33 160 214.66 160 215 160C215 162.31 215 164.62 215 167C199.82 167 184.64 167 169 167C169 166.67 169 166.34 169 166C183.19 165.67 197.38 165.34 212 165C212.66 163.35 213.32 161.7 214 160Z" fill="#E7F6F9"/>
<path d="M421 141C424.3 141 427.6 141 431 141C431 142.98 431 144.96 431 147C427.7 146.67 424.4 146.34 421 146C421 144.35 421 142.7 421 141Z" fill="#C7DDE4"/>
<path d="M327 136C330.96 136 334.92 136 339 136C339 138.64 339 141.28 339 144C338.01 143.67 337.02 143.34 336 143C335.67 141.02 335.34 139.04 335 137C334.01 137.33 333.02 137.66 332 138C330.68 137.67 329.36 137.34 328 137C328 141.62 328 146.24 328 151C327.67 151 327.34 151 327 151C327 146.05 327 141.1 327 136ZM336 138C337 140 337 140 337 140L336 138Z" fill="#D2E5EB"/>
<path d="M26 110C28.97 110 31.94 110 35 110C35 110.33 35 110.66 35 111C32.36 111 29.72 111 27 111C27.33 112.65 27.66 114.3 28 116C30.64 116 33.28 116 36 116C36 116.66 36 117.32 36 118C31.545 118.495 31.545 118.495 27 119C27 120.65 27 122.3 27 124C26.67 124 26.34 124 26 124C26 122.35 26 120.7 26 119C23.36 119 20.72 119 18 119C18 118.67 18 118.34 18 118C20.64 118 23.28 118 26 118C26 115.36 26 112.72 26 110Z" fill="#D9EAF0"/>
<path d="M139 70C139.33 70 139.66 70 140 70C140.439 75.3591 140.439 75.3591 140 78C137.562 79.875 137.562 79.875 135 81C134.67 81.66 134.34 82.32 134 83C132.68 83 131.36 83 130 83C130 85.31 130 87.62 130 90C129.67 90 129.34 90 129 90C129 87.36 129 84.72 129 82C130.32 82 131.64 82 133 82C133 80.35 133 78.7 133 77C134.98 77 136.96 77 139 77C139 74.69 139 72.38 139 70Z" fill="#DEF0F5"/>
<path d="M369 157C372.96 157 376.92 157 381 157C378.298 159.702 375.662 160.085 372 161C371.34 161 370.68 161 370 161C369.67 162.32 369.34 163.64 369 165C369 162.36 369 159.72 369 157Z" fill="#D3E5EA"/>
<path d="M147 61C152.94 61 158.88 61 165 61C165 61.33 165 61.66 165 62C160.38 62.33 155.76 62.66 151 63C150.01 65.31 149.02 67.62 148 70C147.67 70 147.34 70 147 70C147 67.03 147 64.06 147 61Z" fill="#E7F7FA"/>
<path d="M187 15C187.33 15 187.66 15 188 15C188.027 16.4791 188.046 17.9583 188.062 19.4375C188.074 20.2612 188.086 21.0849 188.098 21.9336C188 24 188 24 187 25C184.329 25.1412 181.676 25.0425 179 25C179 27.31 179 29.62 179 32C178.67 32 178.34 32 178 32C177.902 25.8477 177.902 25.8477 178 24C179 23 179 23 182.562 22.9375C183.697 22.9581 184.831 22.9787 186 23C186.33 20.36 186.66 17.72 187 15Z" fill="#DCEEF4"/>
<path d="M46 155C49.63 155 53.26 155 57 155C57 158.96 57 162.92 57 167C56.67 167 56.34 167 56 167C55.8762 165.928 55.7525 164.855 55.625 163.75C55.1036 160.621 54.5991 158.665 53 156C51.35 156.66 49.7 157.32 48 158C48 157.34 48 156.68 48 156C47.34 155.67 46.68 155.34 46 155Z" fill="#D1E6EB"/>
<path d="M387 104C389.31 104.33 391.62 104.66 394 105C394 108.63 394 112.26 394 116C392.02 116 390.04 116 388 116C389.375 114.5 389.375 114.5 391 113C391.66 113 392.32 113 393 113C392.691 112.423 392.381 111.845 392.062 111.25C391 109 391 109 390.562 106.812C390.377 106.214 390.191 105.616 390 105C389.01 104.67 388.02 104.34 387 104Z" fill="#E5F4F8"/>
<path d="M79 87C79.33 87.99 79.66 88.98 80 90C78.68 90 77.36 90 76 90C76 92.64 76 95.28 76 98C75.67 98 75.34 98 75 98C75 94.7 75 91.4 75 88C71.7 88 68.4 88 65 88C65 87.67 65 87.34 65 87C66.77 86.8047 68.541 86.619 70.3125 86.4375C71.2986 86.3331 72.2848 86.2287 73.3008 86.1211C76 86 76 86 79 87Z" fill="#D6E9F0"/>
<path d="M27 111C28.98 111 30.96 111 33 111C33.33 112.65 33.66 114.3 34 116C32.0086 116.381 30.0072 116.713 28 117C27 116 27 116 26.9375 113.438C26.9581 112.633 26.9787 111.829 27 111Z" fill="#BFD8E3"/>
<path d="M30 145C32.31 145 34.62 145 37 145C37 148.3 37 151.6 37 155C36.67 155 36.34 155 36 155C35.67 153.02 35.34 151.04 35 149C34.01 149 33.02 149 32 149C32 148.34 32 147.68 32 147C31.34 146.34 30.68 145.68 30 145Z" fill="#D1E6EB"/>
<path d="M234 143C234.33 144.32 234.66 145.64 235 147C231.785 148.607 228.564 148.057 225 148C225.99 147.67 226.98 147.34 228 147C228 146.34 228 145.68 228 145C229.98 144.34 231.96 143.68 234 143Z" fill="#E7F5F8"/>
<path d="M424 156C424.33 156 424.66 156 425 156C425 159.3 425 162.6 425 166C423.35 166 421.7 166 420 166C420.289 165.464 420.577 164.928 420.875 164.375C422.167 161.647 423.086 158.874 424 156Z" fill="#E4F5F8"/>
<path d="M18 119C20.64 119 23.28 119 26 119C25.67 119.99 25.34 120.98 25 122C24.01 122 23.02 122 22 122C20.6602 122.306 19.3249 122.635 18 123C18 121.68 18 120.36 18 119Z" fill="#C3DBE5"/>
<path d="M369 159C369 160.98 369 162.96 369 165C367.68 165 366.36 165 365 165C365 163.35 365 161.7 365 160C367 159 367 159 369 159Z" fill="#E9F8FB"/>
<path d="M180 38C181.65 38 183.3 38 185 38C184.67 39.32 184.34 40.64 184 42C183.01 41.67 182.02 41.34 181 41C181 42.98 181 44.96 181 47C180.67 47 180.34 47 180 47C180 44.03 180 41.06 180 38Z" fill="#E5F6FB"/>
<path d="M417 166C417.33 166 417.66 166 418 166C418 168.31 418 170.62 418 173C415.36 173 412.72 173 410 173C412.332 171.794 414.496 170.835 417 170C417 168.68 417 167.36 417 166Z" fill="#E8F7F9"/>
<path d="M65 88C66.65 88 68.3 88 70 88C70 88.66 70 89.32 70 90C69.01 90 68.02 90 67 90C67 92.31 67 94.62 67 97C66.34 97 65.68 97 65 97C65 94.03 65 91.06 65 88Z" fill="#C7DCE4"/>
<path d="M381 147C381.33 147 381.66 147 382 147C382 150.3 382 153.6 382 157C380.68 156.67 379.36 156.34 378 156C378.99 153.03 379.98 150.06 381 147Z" fill="#EBF7FB"/>
<path d="M140 70C142.31 70 144.62 70 147 70C145.824 70.9281 145.824 70.9281 144.625 71.875C142.032 73.8986 142.032 73.8986 140 76C140 74.02 140 72.04 140 70Z" fill="#ECF9FC"/>
<path d="M357 157C359.64 157 362.28 157 365 157C365 158.32 365 159.64 365 161C363.68 160.67 362.36 160.34 361 160C361 159.34 361 158.68 361 158C359.68 157.67 358.36 157.34 357 157Z" fill="#D5E7EC"/>
<path d="M270 141C270.99 141.495 270.99 141.495 272 142C272.186 142.959 272.186 142.959 272.375 143.938C272.809 146.199 272.809 146.199 275.062 147.25C275.702 147.498 276.341 147.745 277 148C275 148.043 273 148.041 271 148C270 147 270 147 269.938 143.938C269.958 142.968 269.979 141.999 270 141Z" fill="#E1F1F4"/>
<path d="M314 164C314.66 164 315.32 164 316 164C316 164.99 316 165.98 316 167C312.04 167 308.08 167 304 167C304 166.67 304 166.34 304 166C304.957 165.909 304.957 165.909 305.934 165.816C307.173 165.691 307.173 165.691 308.438 165.562C309.261 165.481 310.085 165.4 310.934 165.316C312.987 165.211 312.987 165.211 314 164Z" fill="#EFFAFD"/>
<path d="M221 156C221.33 157.32 221.66 158.64 222 160C220.824 160.217 220.824 160.217 219.625 160.438C217.036 160.878 217.036 160.878 215 162C215.33 160.68 215.66 159.36 216 158C217.65 158 219.3 158 221 158C221 157.34 221 156.68 221 156Z" fill="#D2E6EA"/>
<path d="M388 144C388.99 144 389.98 144 391 144C391.33 144.99 391.66 145.98 392 147C388.527 148.158 385.639 148.069 382 148C382 147.67 382 147.34 382 147C383.98 147 385.96 147 388 147C388 146.01 388 145.02 388 144Z" fill="#D5E7EE"/>
<path d="M79 87C80.32 87 81.64 87 83 87C83 87.66 83 88.32 83 89C84.98 89 86.96 89 89 89C89 89.33 89 89.66 89 90C86.03 90 83.06 90 80 90C79.67 89.01 79.34 88.02 79 87Z" fill="#CAE1EA"/>
</svg>
